<?xml version="1.0" encoding="UTF-8"?>
<!DOCTYPE svg PUBLIC "-//W3C//DTD SVG 1.1//EN" "http://www.w3.org/Graphics/SVG/1.1/DTD/svg11.dtd">
<svg width="316mm" height="151mm" viewBox="0 0 31600 15100" version="1.1" xmlns="http://www.w3.org/2000/svg" xmlns:xlink="http://www.w3.org/1999/xlink" stroke-width="28.222" stroke-linejoin="round" xml:space="preserve">
 <path fill="rgb(255,255,255)" stroke="none" d="M 15820,15061 L 0,15061 0,0 31640,0 31640,15061 15820,15061 Z"/>
 <path fill="none" stroke="rgb(179,179,179)" stroke-linejoin="round" d="M 16642,12349 L 2370,12349 2370,1717 30914,1717 30914,12349 16642,12349 Z"/>
 <path fill="none" stroke="rgb(179,179,179)" stroke-linejoin="round" d="M 2370,1716 L 2370,12348"/>
 <path fill="none" stroke="rgb(179,179,179)" stroke-linejoin="round" d="M 3797,1716 L 3797,12348"/>
 <path fill="none" stroke="rgb(179,179,179)" stroke-linejoin="round" d="M 5224,1716 L 5224,12348"/>
 <path fill="none" stroke="rgb(179,179,179)" stroke-linejoin="round" d="M 6651,1716 L 6651,12348"/>
 <path fill="none" stroke="rgb(179,179,179)" stroke-linejoin="round" d="M 8079,1716 L 8079,12348"/>
 <path fill="none" stroke="rgb(179,179,179)" stroke-linejoin="round" d="M 9506,1716 L 9506,12348"/>
 <path fill="none" stroke="rgb(179,179,179)" stroke-linejoin="round" d="M 10933,1716 L 10933,12348"/>
 <path fill="none" stroke="rgb(179,179,179)" stroke-linejoin="round" d="M 12360,1716 L 12360,12348"/>
 <path fill="none" stroke="rgb(179,179,179)" stroke-linejoin="round" d="M 13788,1716 L 13788,12348"/>
 <path fill="none" stroke="rgb(179,179,179)" stroke-linejoin="round" d="M 15215,1716 L 15215,12348"/>
 <path fill="none" stroke="rgb(179,179,179)" stroke-linejoin="round" d="M 16641,1716 L 16641,12348"/>
 <path fill="none" stroke="rgb(179,179,179)" stroke-linejoin="round" d="M 18068,1716 L 18068,12348"/>
 <path fill="none" stroke="rgb(179,179,179)" stroke-linejoin="round" d="M 19496,1716 L 19496,12348"/>
 <path fill="none" stroke="rgb(179,179,179)" stroke-linejoin="round" d="M 20923,1716 L 20923,12348"/>
 <path fill="none" stroke="rgb(179,179,179)" stroke-linejoin="round" d="M 22350,1716 L 22350,12348"/>
 <path fill="none" stroke="rgb(179,179,179)" stroke-linejoin="round" d="M 23777,1716 L 23777,12348"/>
 <path fill="none" stroke="rgb(179,179,179)" stroke-linejoin="round" d="M 25205,1716 L 25205,12348"/>
 <path fill="none" stroke="rgb(179,179,179)" stroke-linejoin="round" d="M 26632,1716 L 26632,12348"/>
 <path fill="none" stroke="rgb(179,179,179)" stroke-linejoin="round" d="M 28059,1716 L 28059,12348"/>
 <path fill="none" stroke="rgb(179,179,179)" stroke-linejoin="round" d="M 29486,1716 L 29486,12348"/>
 <path fill="none" stroke="rgb(179,179,179)" stroke-linejoin="round" d="M 30913,1716 L 30913,12348"/>
 <path fill="none" stroke="rgb(179,179,179)" stroke-linejoin="round" d="M 30913,12348 L 2370,12348"/>
 <path fill="none" stroke="rgb(179,179,179)" stroke-linejoin="round" d="M 30913,11284 L 2370,11284"/>
 <path fill="none" stroke="rgb(179,179,179)" stroke-linejoin="round" d="M 30913,10221 L 2370,10221"/>
 <path fill="none" stroke="rgb(179,179,179)" stroke-linejoin="round" d="M 30913,9158 L 2370,9158"/>
 <path fill="none" stroke="rgb(179,179,179)" stroke-linejoin="round" d="M 30913,8094 L 2370,8094"/>
 <path fill="none" stroke="rgb(179,179,179)" stroke-linejoin="round" d="M 30913,7032 L 2370,7032"/>
 <path fill="none" stroke="rgb(179,179,179)" stroke-linejoin="round" d="M 30913,5969 L 2370,5969"/>
 <path fill="none" stroke="rgb(179,179,179)" stroke-linejoin="round" d="M 30913,4905 L 2370,4905"/>
 <path fill="none" stroke="rgb(179,179,179)" stroke-linejoin="round" d="M 30913,3842 L 2370,3842"/>
 <path fill="none" stroke="rgb(179,179,179)" stroke-linejoin="round" d="M 30913,2779 L 2370,2779"/>
 <path fill="none" stroke="rgb(179,179,179)" stroke-linejoin="round" d="M 30913,1716 L 2370,1716"/>
 <path fill="none" stroke="rgb(179,179,179)" stroke-linejoin="round" d="M 2370,12498 L 2370,12348"/>
 <path fill="none" stroke="rgb(179,179,179)" stroke-linejoin="round" d="M 2370,12498 L 2370,12348"/>
 <path fill="none" stroke="rgb(179,179,179)" stroke-linejoin="round" d="M 3797,12498 L 3797,12348"/>
 <path fill="none" stroke="rgb(179,179,179)" stroke-linejoin="round" d="M 3797,12498 L 3797,12348"/>
 <path fill="none" stroke="rgb(179,179,179)" stroke-linejoin="round" d="M 5224,12498 L 5224,12348"/>
 <path fill="none" stroke="rgb(179,179,179)" stroke-linejoin="round" d="M 5224,12498 L 5224,12348"/>
 <path fill="none" stroke="rgb(179,179,179)" stroke-linejoin="round" d="M 6651,12498 L 6651,12348"/>
 <path fill="none" stroke="rgb(179,179,179)" stroke-linejoin="round" d="M 6651,12498 L 6651,12348"/>
 <path fill="none" stroke="rgb(179,179,179)" stroke-linejoin="round" d="M 8079,12498 L 8079,12348"/>
 <path fill="none" stroke="rgb(179,179,179)" stroke-linejoin="round" d="M 8079,12498 L 8079,12348"/>
 <path fill="none" stroke="rgb(179,179,179)" stroke-linejoin="round" d="M 9506,12498 L 9506,12348"/>
 <path fill="none" stroke="rgb(179,179,179)" stroke-linejoin="round" d="M 9506,12498 L 9506,12348"/>
 <path fill="none" stroke="rgb(179,179,179)" stroke-linejoin="round" d="M 10933,12498 L 10933,12348"/>
 <path fill="none" stroke="rgb(179,179,179)" stroke-linejoin="round" d="M 10933,12498 L 10933,12348"/>
 <path fill="none" stroke="rgb(179,179,179)" stroke-linejoin="round" d="M 12360,12498 L 12360,12348"/>
 <path fill="none" stroke="rgb(179,179,179)" stroke-linejoin="round" d="M 12360,12498 L 12360,12348"/>
 <path fill="none" stroke="rgb(179,179,179)" stroke-linejoin="round" d="M 13788,12498 L 13788,12348"/>
 <path fill="none" stroke="rgb(179,179,179)" stroke-linejoin="round" d="M 13788,12498 L 13788,12348"/>
 <path fill="none" stroke="rgb(179,179,179)" stroke-linejoin="round" d="M 15215,12498 L 15215,12348"/>
 <path fill="none" stroke="rgb(179,179,179)" stroke-linejoin="round" d="M 15215,12498 L 15215,12348"/>
 <path fill="none" stroke="rgb(179,179,179)" stroke-linejoin="round" d="M 16641,12498 L 16641,12348"/>
 <path fill="none" stroke="rgb(179,179,179)" stroke-linejoin="round" d="M 16641,12498 L 16641,12348"/>
 <path fill="none" stroke="rgb(179,179,179)" stroke-linejoin="round" d="M 18068,12498 L 18068,12348"/>
 <path fill="none" stroke="rgb(179,179,179)" stroke-linejoin="round" d="M 18068,12498 L 18068,12348"/>
 <path fill="none" stroke="rgb(179,179,179)" stroke-linejoin="round" d="M 19496,12498 L 19496,12348"/>
 <path fill="none" stroke="rgb(179,179,179)" stroke-linejoin="round" d="M 19496,12498 L 19496,12348"/>
 <path fill="none" stroke="rgb(179,179,179)" stroke-linejoin="round" d="M 20923,12498 L 20923,12348"/>
 <path fill="none" stroke="rgb(179,179,179)" stroke-linejoin="round" d="M 20923,12498 L 20923,12348"/>
 <path fill="none" stroke="rgb(179,179,179)" stroke-linejoin="round" d="M 22350,12498 L 22350,12348"/>
 <path fill="none" stroke="rgb(179,179,179)" stroke-linejoin="round" d="M 22350,12498 L 22350,12348"/>
 <path fill="none" stroke="rgb(179,179,179)" stroke-linejoin="round" d="M 23777,12498 L 23777,12348"/>
 <path fill="none" stroke="rgb(179,179,179)" stroke-linejoin="round" d="M 23777,12498 L 23777,12348"/>
 <path fill="none" stroke="rgb(179,179,179)" stroke-linejoin="round" d="M 25205,12498 L 25205,12348"/>
 <path fill="none" stroke="rgb(179,179,179)" stroke-linejoin="round" d="M 25205,12498 L 25205,12348"/>
 <path fill="none" stroke="rgb(179,179,179)" stroke-linejoin="round" d="M 26632,12498 L 26632,12348"/>
 <path fill="none" stroke="rgb(179,179,179)" stroke-linejoin="round" d="M 26632,12498 L 26632,12348"/>
 <path fill="none" stroke="rgb(179,179,179)" stroke-linejoin="round" d="M 28059,12498 L 28059,12348"/>
 <path fill="none" stroke="rgb(179,179,179)" stroke-linejoin="round" d="M 28059,12498 L 28059,12348"/>
 <path fill="none" stroke="rgb(179,179,179)" stroke-linejoin="round" d="M 29486,12498 L 29486,12348"/>
 <path fill="none" stroke="rgb(179,179,179)" stroke-linejoin="round" d="M 29486,12498 L 29486,12348"/>
 <path fill="none" stroke="rgb(179,179,179)" stroke-linejoin="round" d="M 30913,12498 L 30913,12348"/>
 <path fill="none" stroke="rgb(179,179,179)" stroke-linejoin="round" d="M 30913,12498 L 30913,12348"/>
 <path fill="none" stroke="rgb(179,179,179)" stroke-linejoin="round" d="M 2370,12348 L 30913,12348"/>
 <path fill="none" stroke="rgb(179,179,179)" stroke-linejoin="round" d="M 2220,12348 L 2370,12348"/>
 <path fill="none" stroke="rgb(179,179,179)" stroke-linejoin="round" d="M 2220,12348 L 2370,12348"/>
 <path fill="none" stroke="rgb(179,179,179)" stroke-linejoin="round" d="M 2220,11284 L 2370,11284"/>
 <path fill="none" stroke="rgb(179,179,179)" stroke-linejoin="round" d="M 2220,11284 L 2370,11284"/>
 <path fill="none" stroke="rgb(179,179,179)" stroke-linejoin="round" d="M 2220,10221 L 2370,10221"/>
 <path fill="none" stroke="rgb(179,179,179)" stroke-linejoin="round" d="M 2220,10221 L 2370,10221"/>
 <path fill="none" stroke="rgb(179,179,179)" stroke-linejoin="round" d="M 2220,9158 L 2370,9158"/>
 <path fill="none" stroke="rgb(179,179,179)" stroke-linejoin="round" d="M 2220,9158 L 2370,9158"/>
 <path fill="none" stroke="rgb(179,179,179)" stroke-linejoin="round" d="M 2220,8094 L 2370,8094"/>
 <path fill="none" stroke="rgb(179,179,179)" stroke-linejoin="round" d="M 2220,8094 L 2370,8094"/>
 <path fill="none" stroke="rgb(179,179,179)" stroke-linejoin="round" d="M 2220,7032 L 2370,7032"/>
 <path fill="none" stroke="rgb(179,179,179)" stroke-linejoin="round" d="M 2220,7032 L 2370,7032"/>
 <path fill="none" stroke="rgb(179,179,179)" stroke-linejoin="round" d="M 2220,5969 L 2370,5969"/>
 <path fill="none" stroke="rgb(179,179,179)" stroke-linejoin="round" d="M 2220,5969 L 2370,5969"/>
 <path fill="none" stroke="rgb(179,179,179)" stroke-linejoin="round" d="M 2220,4905 L 2370,4905"/>
 <path fill="none" stroke="rgb(179,179,179)" stroke-linejoin="round" d="M 2220,4905 L 2370,4905"/>
 <path fill="none" stroke="rgb(179,179,179)" stroke-linejoin="round" d="M 2220,3842 L 2370,3842"/>
 <path fill="none" stroke="rgb(179,179,179)" stroke-linejoin="round" d="M 2220,3842 L 2370,3842"/>
 <path fill="none" stroke="rgb(179,179,179)" stroke-linejoin="round" d="M 2220,2779 L 2370,2779"/>
 <path fill="none" stroke="rgb(179,179,179)" stroke-linejoin="round" d="M 2220,2779 L 2370,2779"/>
 <path fill="none" stroke="rgb(179,179,179)" stroke-linejoin="round" d="M 2220,1716 L 2370,1716"/>
 <path fill="none" stroke="rgb(179,179,179)" stroke-linejoin="round" d="M 2220,1716 L 2370,1716"/>
 <path fill="none" stroke="rgb(179,179,179)" stroke-linejoin="round" d="M 2370,12348 L 2370,1716"/>
 <path fill="none" stroke="rgb(255,66,14)" stroke-width="80" stroke-linejoin="round" d=""/>
 <path fill="none" stroke="rgb(255,66,14)" stroke-width="80" stroke-linejoin="round" d="M 2426,12348 L 2439,12347 2452,12347 2454,12348"/>
 <path fill="none" stroke="rgb(255,66,14)" stroke-width="80" stroke-linejoin="round" d="M 2482,12348 L 2494,12347 2508,12347 2511,12348"/>
 <path fill="none" stroke="rgb(255,66,14)" stroke-width="80" stroke-linejoin="round" d="M 2538,12348 L 2549,12347 2562,12347 2576,12347 2589,12346 2604,12346 2618,12346 2631,12346 2645,12346 2659,12346 2672,12345 2686,12344 2699,12344 2713,12344 2728,12344 2741,12344 2755,12343 2769,12341 2782,12342 2796,12344 2809,12343 2823,12341 2838,12341 2850,12342 2865,12342 2879,12340 2892,12340 2906,12340 2919,12339 2933,12336 2948,12336 2960,12336 2975,12336 2989,12334 3002,12332 3016,12330 3029,12329 3043,12328 3057,12328 3070,12329 3085,12329 3099,12326 3112,12323 3126,12323 3139,12323 3150,12321 3153,12320 3167,12317 3180,12317 3194,12318 3209,12316 3222,12314 3236,12311 3249,12309 3263,12308 3277,12307 3287,12308 3290,12308 3304,12308 3307,12307 3319,12301 3327,12294 3331,12291 3346,12286 3359,12290 3373,12291 3387,12285 3394,12281 3400,12279 3414,12276 3429,12276 3441,12276 3456,12274 3468,12269 3471,12267 3483,12262 3497,12258 3510,12257 3524,12260 3538,12262 3551,12260 3566,12256 3570,12254 3578,12252 3593,12251 3607,12252 3620,12251 3634,12243 3637,12240 3648,12230 3653,12228 3661,12227 3668,12228 3675,12230 3685,12228 3688,12226 3701,12214 3703,12213 3717,12207 3730,12210 3744,12212 3758,12209 3771,12208 3785,12212 3798,12208 3804,12201 3812,12188 3814,12186 3824,12174 3827,12173 3840,12175 3841,12175 3854,12183 3868,12185 3881,12184 3895,12184 3908,12180 3914,12173 3922,12160 3931,12147 3937,12142 3949,12147 3951,12149 3964,12161 3978,12151 3981,12146 3988,12133 3991,12128 3997,12120 4005,12115 4018,12115 4032,12112 4038,12108 4047,12102 4059,12099 4074,12105 4082,12109 4088,12112 4101,12114 4111,12108 4115,12103 4122,12093 4128,12085 4131,12082 4142,12075 4155,12083 4156,12084 4169,12094 4184,12091 4196,12082 4198,12081 4211,12071 4215,12069 4225,12064 4238,12061 4252,12056 4253,12054 4265,12042 4266,12040 4275,12028 4279,12022 4285,12014 4293,12005 4296,12002 4308,11996 4321,11999 4326,12003 4335,12008 4348,12011 4362,12004 4365,12001 4375,11987 4376,11985 4382,11975 4389,11966 4393,11962 4403,11962 4405,11963 4418,11974 4422,11976 4428,11976 4430,11974 4442,11961 4445,11958 4455,11949 4458,11948 4468,11950 4472,11952 4486,11957 4499,11956 4513,11954 4528,11954 4540,11951 4545,11949 4555,11940 4559,11936 4567,11924 4569,11922 4577,11909 4582,11903 4587,11895 4596,11885 4600,11882 4609,11879 4623,11880 4635,11883 4637,11884 4650,11885 4665,11884 4669,11882 4677,11877 4684,11869 4692,11859 4694,11855 4703,11843 4706,11839 4716,11829 4719,11827 4733,11821 4742,11816 4747,11812 4760,11803 4762,11803 4774,11800 4787,11802 4793,11803 4802,11803 4803,11803 4816,11797 4823,11789 4829,11781 4832,11777 4840,11761 4843,11756 4847,11748 4856,11736 4857,11734 4870,11724 4871,11723 4884,11723 4887,11724 4897,11730 4907,11738 4911,11741 4923,11751 4926,11752 4939,11751 4940,11749 4950,11735 4953,11730 4957,11721 4963,11708 4967,11698 4969,11694 4974,11682 4980,11671 4981,11669 4994,11658 5007,11667 5011,11672 5021,11678 5031,11669 5036,11661 5038,11655 5044,11644 5048,11636 5054,11630 5063,11630 5066,11631 5077,11634 5083,11630 5090,11618 5091,11615 5097,11602 5104,11589 5117,11589 5120,11592 5128,11606 5131,11609 5146,11607 5148,11602 5154,11590 5158,11579 5160,11576 5165,11564 5173,11554 5178,11551 5187,11550 5191,11551 5200,11554 5214,11560 5223,11565 5227,11568 5241,11577 5243,11578 5251,11577 5255,11574 5264,11562 5268,11555 5271,11550 5278,11537 5283,11530 5287,11524 5297,11513 5300,11510 5310,11500 5312,11496 5322,11483 5324,11481 5334,11471 5337,11469 5351,11467 5365,11467 5378,11459 5380,11458 5392,11446 5395,11445 5407,11442 5420,11445 5434,11447 5441,11444 5447,11439 5452,11429 5458,11416 5461,11408 5462,11404 5468,11389 5474,11378 5475,11376 5488,11379 5495,11393 5502,11406 5514,11404 5517,11398 5519,11390 5524,11376 5528,11361 5529,11356 5531,11351 5535,11338 5542,11324 5544,11322 5557,11320 5564,11326 5571,11332 5579,11339 5585,11341 5598,11341 5602,11338 5612,11328 5615,11324 5624,11311 5626,11307 5632,11298 5639,11288 5642,11284 5654,11277 5666,11280 5681,11281 5691,11271 5695,11265 5699,11258 5708,11247 5709,11245 5722,11240 5736,11243 5749,11246 5764,11241 5773,11231 5776,11227 5782,11218 5791,11205 5799,11191 5805,11184 5809,11179 5818,11173 5832,11172 5846,11177 5859,11175 5869,11166 5873,11160 5879,11152 5886,11139 5893,11126 5901,11114 5902,11112 5915,11101 5928,11101 5942,11104 5956,11103 5969,11102 5982,11099 5983,11099 5996,11084 6002,11072 6008,11059 6010,11053 6013,11046 6023,11032 6025,11032 6032,11034 6038,11040 6043,11048 6050,11060 6052,11062 6060,11074 6066,11077 6076,11071 6079,11066 6082,11059 6086,11045 6090,11029 6093,11018 6096,11007 6100,10991 6105,10977 6106,10973 6110,10965 6120,10965 6123,10968 6132,10983 6135,10988 6137,10994 6146,11007 6147,11009 6162,11010 6165,11006 6170,10993 6175,10979 6176,10975 6179,10965 6183,10950 6186,10940 6189,10931 6190,10927 6197,10912 6203,10908 6216,10911 6223,10914 6230,10915 6234,10914 6244,10909 6257,10900 6272,10891 6279,10886 6286,10883 6299,10878 6313,10878 6326,10880 6340,10874 6342,10873 6350,10860 6354,10853 6357,10847 6364,10833 6367,10827 6372,10819 6379,10805 6381,10800 6386,10794 6396,10780 6409,10770 6423,10769 6436,10776 6443,10782 6450,10788 6464,10794 6470,10794 6477,10791 6487,10780 6491,10773 6496,10767 6506,10753 6519,10747 6533,10742 6534,10741 6543,10726 6546,10720 6548,10713 6554,10700 6560,10691 6574,10699 6576,10702 6581,10715 6587,10729 6594,10742 6601,10745 6607,10740 6614,10728 6616,10725 6620,10714 6626,10698 6628,10689 6630,10685 6634,10672 6638,10659 6643,10648 6650,10633 6656,10627 6670,10626 6684,10623 6686,10622 6697,10608 6708,10595 6711,10594 6725,10592 6738,10586 6743,10582 6753,10568 6765,10559 6778,10570 6780,10571 6794,10581 6805,10568 6807,10566 6813,10554 6818,10542 6821,10536 6825,10528 6835,10515 6848,10507 6862,10504 6875,10502 6890,10494 6897,10488 6904,10479 6907,10475 6915,10461 6917,10459 6924,10448 6931,10440 6945,10438 6958,10447 6961,10450 6972,10454 6985,10450 6988,10448 6999,10439 7004,10435 7014,10426 7018,10422 7027,10414 7034,10409 7041,10403 7048,10395 7055,10385 7057,10383 7065,10368 7068,10364 7074,10356 7082,10350 7095,10354 7098,10357 7108,10370 7109,10372 7118,10385 7124,10392 7129,10396 7137,10397 7138,10396 7149,10382 7151,10380 7158,10369 7164,10363 7178,10364 7192,10367 7202,10356 7205,10351 7211,10341 7218,10329 7219,10327 7234,10318 7245,10316 7246,10315 7256,10302 7261,10295 7264,10289 7274,10276 7281,10277 7288,10289 7289,10292 7295,10306 7302,10318 7311,10316 7315,10305 7316,10301 7321,10286 7323,10275 7328,10259 7329,10253 7331,10248 7335,10235 7342,10223 7343,10222 7355,10224 7356,10225 7371,10235 7383,10235 7398,10225 7401,10223 7412,10209 7422,10195 7425,10191 7431,10184 7439,10174 7443,10170 7453,10167 7466,10169 7480,10165 7488,10155 7493,10146 7495,10143 7505,10130 7508,10128 7519,10131 7522,10133 7535,10137 7542,10130 7549,10118 7550,10116 7560,10104 7563,10104 7565,10105 7573,10118 7576,10125 7579,10132 7585,10145 7590,10152 7600,10141 7603,10134 7605,10129 7609,10115 7613,10101 7617,10089 7623,10077 7632,10073 7640,10078 7645,10080 7653,10076 7659,10068 7662,10062 7667,10051 7673,10041 7676,10037 7686,10033 7695,10038 7700,10041 7709,10037 7713,10031 7717,10022 7722,10011 7727,9997 7735,9983 7742,9977 7755,9982 7757,9985 7769,9997 7770,9998 7783,10005 7796,9997 7804,9984 7810,9974 7813,9970 7823,9960 7837,9965 7852,9967 7860,9958 7864,9951 7869,9944 7879,9933 7882,9931 7889,9932 7893,9933 7906,9941 7920,9942 7933,9935 7939,9931 7947,9923 7953,9918 7961,9908 7966,9904 7974,9894 7977,9891 7989,9879 7990,9877 8003,9865 8016,9861 8023,9866 8030,9876 8033,9881 8041,9893 8043,9895 8057,9895 8060,9891 8069,9876 8071,9870 8074,9865 8083,9851 8084,9849 8098,9840 8113,9841 8126,9846 8140,9846 8153,9839 8154,9838 8167,9829 8173,9825 8181,9818 8188,9810 8194,9801 8196,9798 8203,9783 8208,9771 8217,9759 8223,9757 8226,9759 8235,9773 8250,9780 8255,9771 8261,9755 8263,9751 8265,9742 8270,9731 8277,9718 8284,9721 8291,9734 8297,9747 8304,9760 8315,9758 8318,9753 8323,9744 8328,9729 8333,9717 8338,9703 8344,9691 8345,9689 8353,9679 8360,9674 8373,9676 8377,9680 8387,9690 8391,9694 8401,9700 8414,9699 8422,9691 8428,9682 8431,9678 8440,9665 8442,9663 8455,9668 8462,9681 8470,9692 8471,9694 8480,9692 8482,9687 8487,9676 8491,9662 8494,9652 8497,9643 8498,9638 8504,9623 8511,9616 8524,9626 8525,9628 8538,9629 8541,9625 8547,9612 8552,9597 8557,9585 8562,9571 8565,9566 8572,9559 8579,9559 8581,9560 8592,9570 8595,9574 8607,9587 8621,9588 8624,9585 8631,9572 8634,9565 8637,9558 8642,9546 8648,9536 8651,9533 8662,9533 8664,9534 8675,9544 8679,9547 8689,9552 8702,9558 8706,9560 8716,9568 8731,9571 8741,9558 8744,9552 8746,9546 8752,9531 8758,9517 8764,9506 8772,9495 8775,9493 8785,9492 8791,9494 8799,9497 8812,9499 8821,9493 8826,9483 8829,9478 8835,9466 8841,9455 8842,9453 8853,9444 8868,9455 8882,9463 8895,9456 8898,9453 8909,9440 8921,9427 8922,9425 8936,9415 8941,9414 8951,9412 8963,9410 8978,9401 8979,9400 8992,9393 9005,9394 9016,9401 9019,9403 9030,9414 9032,9416 9046,9421 9055,9414 9060,9405 9065,9398 9073,9388 9075,9387 9082,9387 9088,9392 9096,9401 9102,9404 9109,9400 9115,9390 9116,9386 9122,9370 9126,9356 9129,9347 9133,9332 9138,9318 9142,9306 9148,9293 9156,9283 9167,9296 9170,9304 9172,9309 9176,9323 9180,9337 9183,9345 9185,9348 9197,9354 9202,9345 9206,9333 9210,9318 9212,9314 9215,9304 9219,9291 9225,9279 9239,9270 9252,9277 9259,9282 9266,9287 9280,9291 9293,9289 9307,9281 9322,9271 9327,9267 9334,9261 9343,9254 9349,9249 9362,9242 9376,9243 9390,9241 9392,9240 9403,9228 9414,9214 9417,9212 9432,9216 9444,9225 9459,9217 9462,9213 9470,9199 9471,9197 9477,9187 9486,9175 9487,9173 9500,9166 9513,9176 9521,9189 9527,9199 9530,9203 9541,9213 9554,9209 9561,9200 9569,9188 9576,9172 9581,9160 9589,9148 9596,9140 9610,9139 9623,9141 9637,9137 9644,9135 9651,9134 9664,9133 9678,9126 9683,9121 9691,9109 9693,9107 9703,9094 9706,9091 9720,9088 9733,9093 9737,9095 9747,9099 9761,9094 9770,9081 9774,9074 9778,9067 9788,9060 9795,9069 9801,9084 9805,9097 9810,9109 9815,9122 9828,9120 9830,9117 9834,9106 9838,9094 9843,9081 9848,9066 9854,9055 9857,9051 9871,9045 9884,9053 9888,9056 9898,9062 9911,9054 9918,9042 9925,9029 9927,9027 9940,9019 9952,9025 9967,9019 9970,9014 9977,9001 9981,8993 9985,8988 9994,8989 10001,9003 10007,9016 10008,9019 10014,9030 10021,9033 10025,9027 10031,9013 10035,8999 10038,8989 10042,8974 10047,8960 10050,8951 10051,8948 10058,8935 10062,8932 10072,8937 10077,8945 10080,8953 10084,8966 10088,8980 10091,8989 10092,8993 10097,9003 10104,9008 10108,9001 10112,8987 10115,8975 10118,8962 10119,8956 10122,8943 10125,8931 10128,8921 10131,8914 10135,8909 10137,8909 10145,8926 10149,8940 10154,8953 10158,8965 10159,8968 10172,8964 10174,8960 10178,8949 10182,8935 10187,8922 10192,8906 10198,8894 10201,8890 10209,8883 10214,8881 10227,8883 10228,8884 10241,8892 10248,8897 10255,8902 10268,8910 10269,8910 10282,8915 10296,8918 10311,8916 10324,8915 10338,8923 10351,8933 10361,8923 10365,8909 10366,8904 10369,8891 10372,8878 10375,8863 10378,8849 10379,8842 10382,8829 10386,8812 10389,8803 10392,8797 10405,8803 10406,8806 10412,8819 10418,8832 10421,8837 10425,8844 10433,8851 10448,8853 10461,8850 10473,8842 10475,8840 10483,8829 10489,8821 10493,8816 10502,8808 10516,8811 10531,8816 10542,8802 10543,8800 10549,8789 10558,8775 10570,8776 10572,8777 10583,8790 10585,8791 10598,8788 10599,8787 10606,8776 10612,8767 10615,8763 10626,8756 10640,8764 10653,8769 10668,8763 10678,8750 10680,8745 10685,8736 10692,8723 10695,8717 10700,8709 10709,8702 10722,8706 10727,8711 10736,8719 10742,8724 10750,8729 10763,8734 10777,8729 10785,8723 10790,8715 10795,8708 10802,8695 10805,8690 10809,8683 10819,8675 10832,8682 10833,8684 10846,8695 10860,8687 10863,8683 10873,8673 10877,8670 10887,8671 10900,8674 10912,8670 10914,8667 10927,8657 10929,8656 10939,8657 10942,8659 10956,8669 10970,8663 10976,8656 10983,8648 10997,8651 11003,8658 11010,8667 11024,8663 11029,8656 11036,8642 11039,8637 11044,8630 11051,8631 11061,8645 11066,8652 11071,8657 11077,8656 11080,8653 11086,8640 11090,8629 11093,8622 11096,8614 11101,8603 11107,8599 11114,8605 11120,8613 11124,8619 11134,8624 11141,8615 11147,8604 11149,8601 11154,8590 11161,8582 11174,8592 11176,8595 11183,8605 11190,8610 11198,8603 11203,8597 11207,8589 11214,8577 11217,8574 11230,8571 11244,8571 11251,8563 11258,8549 11264,8536 11271,8525 11273,8523 11283,8525 11286,8529 11291,8539 11298,8553 11300,8556 11306,8566 11313,8573 11327,8573 11335,8564 11340,8558 11344,8551 11354,8537 11368,8531 11381,8537 11384,8538 11390,8537 11395,8532 11403,8523 11410,8511 11420,8498 11423,8495 11437,8488 11444,8484 11450,8477 11454,8470 11463,8456 11464,8454 11474,8444 11478,8445 11480,8446 11491,8460 11498,8473 11505,8483 11508,8486 11520,8491 11532,8486 11535,8484 11547,8473 11550,8470 11560,8464 11574,8465 11588,8468 11601,8462 11607,8457 11615,8452 11629,8454 11637,8459 11642,8463 11657,8468 11669,8466 11684,8457 11698,8444 11708,8431 11711,8427 11718,8417 11725,8407 11728,8404 11739,8394 11744,8392 11752,8391 11755,8392 11767,8402 11769,8406 11779,8418 11794,8420 11796,8417 11805,8404 11808,8399 11814,8391 11821,8383 11835,8381 11848,8378 11849,8377 11862,8365 11876,8357 11888,8365 11889,8366 11904,8372 11912,8364 11918,8355 11921,8351 11931,8338 11942,8339 11945,8341 11958,8349 11972,8342 11976,8337 11986,8326 11988,8324 11999,8316 12011,8311 12013,8310 12026,8298 12028,8297 12039,8285 12041,8284 12055,8280 12063,8286 12068,8290 12076,8301 12082,8309 12085,8312 12096,8324 12100,8325 12103,8325 12109,8322 12119,8311 12123,8306 12138,8306 12143,8312 12150,8321 12165,8319 12169,8311 12175,8298 12178,8291 12180,8284 12186,8271 12192,8262 12196,8258 12206,8256 12219,8256 12233,8249 12242,8245 12247,8244 12257,8246 12260,8247 12275,8253 12287,8256 12302,8254 12316,8248 12322,8246 12329,8243 12343,8238 12357,8233 12359,8232 12370,8221 12373,8218 12383,8204 12385,8202 12392,8191 12397,8182 12400,8178 12412,8166 12423,8166 12426,8169 12436,8180 12439,8183 12450,8193 12453,8194 12467,8194 12480,8193 12494,8194 12507,8192 12522,8184 12527,8178 12536,8169 12540,8165 12549,8155 12552,8152 12563,8145 12577,8145 12590,8151 12594,8153 12604,8159 12617,8163 12631,8160 12646,8155 12656,8153 12659,8152 12673,8150 12687,8148 12700,8145 12714,8139 12727,8133 12741,8127 12744,8126 12756,8119 12764,8112 12768,8107 12778,8099 12783,8098 12793,8101 12797,8105 12807,8113 12810,8114 12816,8112 12824,8098 12828,8086 12834,8070 12837,8063 12838,8059 12847,8046 12851,8045 12856,8047 12865,8056 12870,8060 12878,8060 12880,8059 12891,8044 12893,8042 12901,8032 12907,8029 12918,8034 12920,8035 12931,8047 12934,8051 12944,8060 12947,8062 12961,8061 12963,8059 12974,8045 12975,8043 12983,8032 12988,8026 13003,8022 13017,8025 13030,8023 13044,8021 13057,8023 13071,8028 13085,8031 13098,8028 13110,8019 13112,8016 13122,8005 13127,8001 13135,7993 13140,7990 13154,7982 13160,7980 13167,7978 13181,7975 13195,7974 13208,7973 13221,7966 13222,7965 13237,7953 13249,7947 13264,7950 13271,7954 13277,7958 13291,7967 13292,7967 13305,7967 13307,7967 13318,7959 13326,7953 13332,7950 13346,7945 13356,7940 13359,7938 13369,7926 13374,7920 13379,7913 13386,7906 13401,7904 13415,7903 13419,7899 13428,7888 13429,7885 13439,7874 13442,7872 13449,7874 13456,7883 13459,7888 13468,7902 13469,7904 13483,7914 13496,7905 13501,7900 13511,7885 13521,7873 13525,7869 13538,7871 13542,7875 13552,7886 13553,7888 13566,7899 13579,7895 13586,7886 13593,7872 13599,7858 13605,7845 13606,7842 13612,7833 13621,7830 13625,7834 13635,7849 13648,7861 13649,7861 13662,7850 13665,7845 13673,7833 13676,7829 13683,7821 13689,7816 13703,7815 13712,7821 13716,7826 13725,7835 13730,7841 13742,7848 13745,7848 13750,7847 13758,7842 13765,7833 13772,7821 13773,7819 13782,7806 13786,7802 13799,7802 13810,7808 13813,7809 13822,7808 13826,7805 13840,7793 13855,7792 13860,7795 13867,7801 13876,7808 13882,7812 13896,7811 13900,7806 13907,7791 13909,7787 13912,7779 13916,7767 13922,7752 13923,7749 13929,7740 13936,7739 13939,7742 13949,7756 13950,7758 13964,7764 13974,7753 13977,7750 13987,7741 13992,7741 13993,7742 14006,7751 14019,7745 14022,7740 14027,7728 14033,7716 14034,7713 14046,7711 14049,7717 14053,7729 14057,7744 14060,7754 14062,7758 14066,7771 14074,7779 14082,7765 14086,7751 14087,7745 14089,7740 14093,7725 14097,7712 14101,7703 14104,7701 14107,7701 14116,7713 14117,7715 14126,7729 14129,7731 14137,7727 14143,7716 14144,7713 14151,7699 14156,7693 14170,7699 14173,7703 14181,7716 14184,7719 14197,7717 14200,7714 14210,7700 14211,7698 14226,7688 14227,7688 14230,7688 14239,7691 14251,7702 14253,7703 14266,7710 14277,7699 14280,7693 14283,7687 14288,7674 14294,7661 14307,7649 14321,7661 14323,7662 14336,7673 14348,7673 14363,7668 14376,7662 14377,7661 14390,7650 14393,7647 14403,7635 14404,7633 14417,7621 14431,7618 14444,7622 14445,7623 14458,7632 14463,7635 14473,7641 14485,7643 14500,7636 14503,7634 14513,7621 14514,7619 14523,7607 14527,7602 14534,7595 14541,7591 14555,7589 14568,7593 14582,7592 14592,7580 14595,7575 14600,7567 14610,7554 14618,7557 14624,7567 14625,7570 14631,7582 14637,7594 14638,7596 14651,7594 14658,7579 14664,7566 14665,7563 14670,7555 14678,7550 14687,7556 14692,7563 14700,7569 14705,7570 14711,7568 14719,7561 14725,7555 14734,7549 14747,7544 14752,7542 14761,7537 14772,7530 14775,7528 14788,7526 14794,7530 14802,7538 14807,7543 14815,7549 14829,7544 14832,7542 14844,7532 14849,7529 14857,7526 14871,7517 14872,7516 14885,7504 14886,7503 14898,7496 14911,7504 14912,7506 14922,7517 14925,7519 14939,7518 14942,7515 14954,7504 14955,7503 14966,7497 14981,7492 14985,7490 14995,7479 14998,7476 15008,7464 15009,7462 15022,7455 15035,7459 15041,7464 15049,7471 15056,7478 15063,7481 15076,7476 15086,7462 15091,7456 15096,7449 15105,7447 15111,7451 15118,7457 15132,7461 15142,7449 15145,7444 15149,7436 15158,7422 15159,7420 15171,7410 15173,7408 15186,7403 15200,7399 15215,7399 15228,7405 15242,7405 15249,7397 15255,7388 15258,7383 15268,7370 15269,7369 15279,7371 15283,7376 15289,7385 15296,7397 15298,7398 15310,7408 15325,7405 15337,7398 15340,7397 15352,7395 15359,7397 15365,7401 15379,7405 15387,7395 15393,7380 15397,7366 15400,7357 15405,7343 15406,7339 15410,7328 15420,7318 15433,7332 15435,7335 15440,7344 15447,7352 15460,7357 15462,7357 15467,7357 15475,7357 15479,7357 15485,7357 15489,7356 15503,7345 15504,7343 15513,7329 15516,7324 15520,7317 15530,7306 15544,7307 15557,7309 15567,7303 15572,7300 15584,7295 15597,7305 15599,7306 15613,7318 15616,7317 15626,7307 15629,7303 15637,7289 15640,7285 15646,7277 15654,7271 15667,7266 15674,7264 15681,7262 15694,7262 15700,7265 15709,7273 15713,7278 15723,7289 15726,7292 15736,7295 15750,7291 15764,7284 15777,7279 15781,7277 15791,7270 15800,7263 15804,7260 15818,7253 15832,7256 15845,7261 15859,7262 15873,7250 15882,7235 15886,7228 15889,7223 15900,7211 15902,7211 15903,7211 15913,7218 15920,7225 15927,7232 15942,7237 15954,7237 15964,7238 15969,7238 15976,7238 15983,7235 15993,7224 15996,7220 16002,7211 16010,7199 16012,7197 16023,7187 16029,7185 16034,7185 16037,7186 16052,7198 16064,7208 16079,7200 16082,7196 16090,7184 16093,7181 16106,7177 16116,7185 16120,7189 16133,7191 16141,7184 16147,7178 16154,7171 16161,7167 16174,7165 16189,7163 16199,7158 16203,7155 16216,7145 16230,7136 16243,7133 16257,7137 16271,7142 16284,7144 16298,7143 16313,7138 16321,7131 16326,7127 16333,7117 16340,7105 16341,7103 16351,7090 16353,7089 16367,7089 16373,7092 16381,7098 16394,7102 16408,7098 16418,7092 16423,7088 16435,7081 16450,7081 16463,7085 16477,7081 16481,7078 16491,7070 16503,7065 16504,7065 16508,7065 16518,7069 16533,7078 16534,7079 16545,7083 16555,7078 16560,7073 16565,7063 16571,7052 16572,7049 16580,7038 16587,7034 16597,7040 16601,7045 16608,7053 16614,7058 16628,7059 16641,7055 16652,7052 16655,7051 16670,7039 16671,7037 16678,7025 16682,7017 16685,7012 16697,6998 16704,6999 16711,7007 16715,7014 16724,7027 16737,7039 16738,7039 16744,7038 16751,7031 16755,7022 16759,7011 16765,6994 16769,6982 16774,6970 16779,6959 16791,6960 16792,6963 16798,6974 16804,6988 16807,6994 16809,6999 16821,7007 16832,6998 16834,6997 16848,6988 16861,6986 16862,6985 16875,6976 16878,6972 16888,6957 16889,6955 16898,6945 16902,6942 16916,6939 16931,6936 16936,6932 16944,6929 16956,6933 16958,6934 16966,6947 16971,6953 16976,6959 16984,6958 16985,6957 16991,6946 16996,6931 16999,6923 17002,6916 17008,6905 17012,6902 17019,6908 17025,6920 17026,6923 17031,6933 17038,6946 17041,6948 17048,6945 17053,6935 17056,6930 17062,6918 17068,6910 17081,6911 17089,6921 17095,6925 17109,6921 17112,6918 17121,6905 17122,6903 17129,6892 17136,6882 17139,6879 17151,6874 17159,6881 17163,6887 17168,6894 17178,6907 17188,6906 17190,6902 17198,6891 17205,6879 17219,6874 17225,6880 17232,6888 17246,6884 17250,6877 17256,6865 17260,6856 17262,6853 17273,6839 17279,6840 17288,6846 17298,6854 17300,6855 17315,6855 17329,6854 17342,6856 17353,6852 17356,6850 17365,6839 17370,6830 17373,6826 17383,6817 17397,6824 17402,6827 17410,6833 17425,6829 17429,6826 17439,6822 17449,6827 17452,6829 17466,6837 17479,6825 17480,6823 17487,6811 17493,6802 17494,6800 17507,6793 17520,6797 17526,6800 17534,6803 17549,6803 17560,6800 17562,6799 17576,6793 17587,6786 17590,6784 17603,6776 17609,6773 17617,6768 17630,6763 17644,6769 17649,6774 17659,6782 17671,6778 17676,6772 17681,6760 17686,6750 17687,6746 17694,6732 17700,6724 17706,6720 17713,6719 17717,6720 17727,6724 17740,6728 17754,6731 17769,6733 17781,6729 17791,6719 17796,6714 17806,6707 17810,6706 17811,6707 17823,6720 17824,6722 17831,6735 17837,6744 17840,6747 17850,6754 17864,6748 17867,6746 17878,6734 17880,6732 17891,6719 17906,6710 17913,6706 17920,6702 17928,6692 17933,6686 17937,6679 17946,6665 17947,6663 17960,6655 17974,6665 17977,6668 17988,6679 17991,6680 18001,6682 18004,6680 18014,6666 18015,6663 18020,6652 18025,6639 18030,6630 18033,6625 18043,6626 18044,6628 18050,6641 18055,6656 18057,6660 18061,6670 18070,6676 18075,6667 18081,6651 18084,6642 18085,6637 18090,6624 18094,6613 18098,6607 18111,6613 18112,6615 18121,6628 18125,6633 18140,6630 18144,6626 18152,6617 18157,6613 18167,6605 18175,6600 18180,6597 18194,6588 18195,6587 18208,6580 18221,6578 18235,6582 18245,6588 18250,6590 18262,6594 18277,6586 18289,6573 18304,6568 18317,6575 18318,6576 18331,6582 18345,6585 18352,6588 18359,6591 18372,6596 18384,6587 18387,6582 18391,6572 18397,6558 18399,6551 18401,6547 18407,6534 18414,6524 18419,6521 18424,6521 18428,6524 18439,6535 18441,6537 18451,6548 18455,6553 18465,6561 18469,6564 18482,6566 18494,6560 18496,6557 18505,6547 18509,6540 18515,6533 18524,6524 18538,6524 18551,6528 18565,6525 18572,6521 18579,6515 18592,6508 18593,6508 18606,6502 18619,6497 18625,6494 18633,6491 18648,6489 18661,6489 18675,6485 18683,6481 18689,6478 18702,6471 18711,6468 18716,6466 18729,6466 18736,6468 18743,6470 18758,6468 18759,6467 18770,6460 18778,6454 18785,6448 18796,6440 18799,6439 18812,6432 18822,6428 18826,6426 18839,6423 18853,6421 18868,6425 18873,6429 18880,6434 18895,6440 18909,6434 18917,6427 18922,6424 18936,6416 18939,6415 18949,6412 18963,6407 18976,6401 18977,6401 18990,6393 19002,6388 19005,6387 19019,6388 19032,6392 19046,6387 19059,6377 19063,6375 19073,6374 19074,6375 19087,6383 19100,6387 19114,6380 19120,6375 19129,6366 19133,6361 19142,6352 19147,6348 19156,6343 19169,6341 19183,6347 19187,6349 19197,6352 19204,6348 19210,6340 19213,6334 19219,6318 19223,6305 19224,6301 19227,6294 19234,6280 19239,6278 19244,6284 19250,6298 19251,6302 19254,6311 19259,6324 19263,6335 19266,6341 19271,6348 19279,6348 19290,6333 19293,6328 19297,6321 19306,6309 19307,6307 19320,6295 19321,6295 19334,6296 19348,6307 19351,6310 19361,6322 19363,6323 19376,6332 19388,6325 19391,6321 19400,6308 19403,6304 19410,6295 19417,6291 19430,6290 19444,6288 19457,6281 19458,6281 19471,6280 19476,6282 19486,6287 19498,6282 19508,6267 19513,6260 19515,6255 19527,6244 19540,6249 19547,6256 19554,6263 19564,6269 19568,6269 19573,6268 19581,6260 19585,6253 19591,6242 19595,6232 19597,6229 19604,6214 19608,6208 19614,6202 19623,6201 19637,6202 19650,6195 19658,6189 19664,6187 19674,6190 19678,6193 19687,6203 19691,6208 19700,6216 19705,6220 19718,6220 19724,6215 19732,6203 19734,6201 19742,6187 19747,6182 19760,6179 19770,6189 19774,6194 19785,6203 19788,6203 19795,6202 19801,6199 19814,6189 19815,6187 19828,6177 19831,6175 19842,6172 19857,6175 19859,6176 19869,6178 19884,6176 19898,6165 19901,6161 19911,6149 19925,6136 19938,6133 19952,6129 19961,6121 19966,6115 19976,6109 19978,6109 19979,6110 19991,6124 19994,6129 19998,6138 20005,6152 20008,6156 20016,6163 20021,6163 20026,6162 20035,6157 20048,6149 20062,6140 20068,6135 20076,6127 20082,6122 20089,6116 20099,6109 20104,6107 20118,6104 20131,6101 20145,6096 20158,6088 20169,6082 20172,6082 20183,6083 20186,6085 20199,6095 20202,6097 20213,6097 20215,6096 20228,6084 20229,6083 20241,6074 20255,6073 20268,6071 20270,6069 20282,6060 20288,6055 20296,6050 20309,6049 20323,6046 20329,6043 20338,6035 20345,6029 20350,6024 20365,6017 20378,6019 20392,6030 20393,6031 20406,6036 20415,6030 20419,6024 20425,6015 20433,6002 20447,5991 20460,5994 20473,6004 20475,6006 20487,6012 20500,6002 20502,6000 20509,5988 20516,5977 20517,5976 20529,5977 20530,5978 20539,5991 20543,5998 20547,6003 20557,6004 20559,6003 20569,5989 20570,5987 20580,5976 20584,5975 20593,5977 20597,5979 20610,5975 20612,5973 20619,5961 20624,5949 20626,5946 20632,5936 20639,5930 20650,5937 20653,5941 20662,5951 20667,5955 20677,5950 20680,5947 20689,5935 20694,5927 20699,5923 20707,5917 20722,5923 20723,5925 20730,5939 20736,5952 20741,5964 20749,5975 20763,5967 20766,5963 20777,5949 20783,5950 20790,5959 20793,5963 20804,5974 20813,5963 20817,5949 20821,5933 20824,5922 20829,5906 20831,5896 20837,5881 20846,5876 20854,5885 20859,5892 20863,5899 20873,5910 20887,5917 20900,5922 20904,5924 20914,5925 20917,5923 20927,5908 20933,5893 20937,5882 20941,5871 20943,5868 20951,5857 20956,5858 20966,5871 20968,5877 20973,5885 20981,5897 20983,5898 20994,5897 20997,5895 21008,5883 21010,5882 21024,5870 21037,5859 21038,5857 21051,5844 21053,5843 21065,5837 21078,5842 21084,5844 21093,5844 21094,5843 21105,5830 21107,5828 21118,5817 21120,5817 21123,5818 21133,5833 21134,5836 21138,5846 21144,5858 21147,5863 21161,5864 21167,5856 21174,5843 21175,5841 21184,5830 21188,5827 21202,5825 21217,5826 21230,5825 21244,5823 21257,5821 21267,5817 21271,5815 21285,5807 21292,5803 21298,5801 21312,5794 21318,5790 21327,5782 21331,5777 21340,5769 21354,5768 21362,5778 21367,5784 21372,5791 21381,5796 21391,5790 21395,5786 21405,5777 21408,5776 21418,5778 21422,5781 21435,5790 21439,5791 21445,5791 21449,5789 21464,5777 21475,5764 21477,5762 21489,5750 21491,5750 21504,5751 21505,5752 21518,5761 21526,5764 21532,5765 21534,5764 21545,5757 21552,5749 21559,5738 21561,5736 21569,5724 21574,5719 21586,5718 21595,5725 21601,5730 21615,5730 21622,5724 21628,5717 21635,5710 21642,5706 21655,5706 21669,5711 21683,5717 21696,5715 21702,5711 21711,5703 21716,5697 21725,5687 21728,5684 21738,5677 21752,5680 21756,5685 21765,5698 21773,5711 21779,5717 21793,5714 21798,5710 21806,5702 21812,5697 21820,5693 21835,5688 21846,5684 21848,5684 21862,5676 21870,5670 21875,5667 21888,5657 21889,5656 21903,5651 21916,5651 21930,5650 21945,5647 21953,5644 21958,5642 21972,5635 21985,5633 21999,5635 22013,5633 22019,5631 22026,5627 22039,5617 22040,5616 22055,5606 22057,5605 22063,5605 22067,5608 22079,5620 22082,5623 22095,5632 22109,5622 22112,5618 22122,5604 22123,5602 22133,5590 22136,5588 22150,5582 22164,5590 22167,5592 22177,5594 22182,5592 22192,5579 22193,5577 22202,5565 22204,5562 22219,5557 22230,5566 22233,5570 22239,5580 22246,5593 22254,5606 22260,5610 22269,5604 22274,5593 22276,5590 22281,5576 22287,5564 22301,5552 22314,5561 22323,5565 22327,5565 22329,5565 22343,5556 22350,5551 22356,5549 22370,5548 22383,5552 22384,5552 22397,5557 22411,5554 22416,5551 22424,5544 22434,5538 22438,5538 22446,5539 22453,5541 22466,5540 22468,5538 22480,5527 22481,5525 22494,5512 22507,5507 22521,5507 22534,5509 22546,5512 22548,5514 22563,5522 22568,5526 22576,5530 22590,5532 22604,5529 22611,5525 22617,5522 22628,5512 22631,5509 22640,5498 22644,5492 22650,5485 22658,5477 22673,5481 22678,5487 22685,5494 22700,5495 22710,5485 22714,5479 22721,5472 22727,5468 22741,5468 22751,5472 22754,5474 22768,5482 22782,5479 22790,5472 22795,5465 22801,5459 22810,5454 22824,5457 22830,5459 22837,5461 22850,5459 22851,5458 22864,5456 22875,5459 22878,5461 22892,5464 22905,5459 22919,5453 22934,5456 22947,5456 22955,5445 22961,5435 22962,5432 22969,5417 22974,5410 22977,5406 22988,5400 23002,5404 23015,5402 23029,5396 23044,5404 23046,5407 23056,5418 23058,5419 23068,5419 23071,5416 23079,5405 23084,5399 23089,5391 23098,5386 23112,5392 23114,5393 23125,5404 23128,5406 23139,5411 23151,5405 23154,5401 23159,5391 23166,5378 23181,5369 23191,5381 23194,5386 23198,5393 23208,5401 23221,5392 23222,5390 23231,5379 23235,5376 23249,5378 23252,5380 23263,5387 23276,5389 23291,5382 23293,5379 23303,5367 23305,5365 23318,5353 23319,5353 23332,5353 23345,5356 23355,5352 23359,5348 23368,5339 23373,5334 23386,5329 23400,5335 23413,5340 23428,5342 23442,5344 23455,5346 23469,5339 23483,5326 23485,5325 23496,5319 23510,5320 23523,5323 23537,5324 23552,5318 23559,5313 23565,5308 23579,5306 23589,5314 23593,5318 23606,5325 23619,5312 23620,5310 23627,5300 23633,5293 23647,5290 23662,5295 23674,5295 23689,5294 23703,5299 23704,5300 23716,5302 23724,5299 23730,5294 23737,5285 23743,5279 23749,5273 23757,5268 23772,5268 23783,5273 23784,5274 23799,5282 23813,5286 23826,5283 23839,5272 23840,5270 23849,5259 23853,5254 23861,5247 23867,5244 23880,5247 23881,5247 23894,5253 23909,5257 23923,5259 23936,5259 23950,5254 23959,5246 23963,5242 23977,5234 23991,5238 24004,5239 24013,5232 24018,5224 24023,5219 24033,5209 24046,5211 24056,5221 24060,5225 24073,5231 24087,5227 24098,5219 24101,5217 24114,5211 24128,5217 24133,5221 24143,5229 24155,5228 24165,5220 24170,5216 24183,5211 24197,5213 24208,5206 24211,5202 24217,5192 24224,5178 24234,5166 24238,5165 24244,5167 24253,5175 24258,5182 24265,5188 24280,5194 24288,5193 24292,5193 24307,5190 24321,5189 24334,5189 24348,5185 24354,5180 24362,5171 24367,5166 24375,5158 24381,5153 24390,5150 24402,5153 24404,5154 24417,5168 24428,5181 24431,5183 24444,5185 24452,5180 24458,5174 24465,5166 24472,5156 24475,5153 24485,5142 24488,5139 24499,5133 24512,5133 24527,5136 24539,5140 24541,5141 24554,5151 24557,5154 24568,5162 24582,5159 24588,5153 24595,5144 24598,5140 24609,5131 24622,5131 24636,5129 24639,5127 24651,5116 24654,5113 24664,5106 24678,5105 24692,5105 24705,5101 24706,5100 24716,5101 24719,5102 24731,5114 24732,5116 24746,5125 24758,5113 24761,5109 24766,5099 24773,5090 24779,5087 24781,5087 24788,5091 24799,5101 24802,5103 24815,5101 24816,5100 24829,5093 24842,5097 24846,5102 24856,5111 24861,5114 24871,5114 24872,5113 24883,5105 24891,5100 24898,5096 24912,5093 24925,5093 24939,5092 24950,5087 24952,5086 24966,5073 24980,5064 24993,5061 25008,5063 25022,5068 25035,5071 25049,5072 25062,5070 25076,5065 25089,5060 25090,5060 25103,5056 25117,5052 25132,5049 25145,5047 25159,5048 25172,5050 25186,5048 25189,5047 25200,5044 25213,5042 25227,5042 25242,5042 25254,5043 25269,5046 25277,5047 25282,5048 25293,5047 25296,5046 25310,5037 25314,5033 25323,5022 25324,5020 25334,5006 25337,5003 25352,4999 25361,5008 25364,5011 25374,5021 25379,5023 25391,5022 25394,5020 25406,5014 25420,5009 25431,5007 25433,5007 25447,5006 25461,5006 25470,5008 25474,5009 25489,5010 25501,5008 25503,5007 25516,5003 25530,4998 25543,4997 25557,5002 25567,5008 25571,5011 25584,5017 25598,5015 25607,5007 25611,5001 25616,4994 25626,4980 25640,4979 25643,4981 25653,4993 25656,4996 25667,4999 25675,4994 25681,4989 25693,4980 25694,4980 25708,4979 25721,4980 25735,4978 25750,4976 25763,4975 25777,4974 25791,4970 25804,4969 25818,4976 25831,4980 25845,4975 25860,4969 25872,4971 25887,4975 25901,4968 25914,4960 25928,4966 25931,4968 25941,4977 25955,4976 25965,4967 25970,4962 25982,4955 25987,4955 25991,4955 25997,4955 26011,4956 26021,4954 26024,4954 26038,4953 26051,4953 26065,4953 26079,4951 26092,4950 26107,4952 26121,4953 26134,4952 26148,4949 26161,4947 26175,4946 26189,4945 26202,4942 26205,4941 26216,4933 26226,4928 26229,4927 26236,4928 26244,4931 26258,4937 26271,4930 26274,4928 26285,4920 26299,4928 26312,4942 26325,4941 26326,4939 26336,4926 26339,4923 26348,4914 26353,4912 26368,4914 26381,4911 26395,4902 26396,4901 26409,4901 26422,4911 26429,4915 26436,4916 26440,4915 26449,4910 26463,4905 26478,4908 26490,4912 26505,4915 26506,4915 26509,4915 26519,4914 26532,4910 26546,4905 26553,4901 26559,4899 26573,4893 26588,4891 26600,4893 26615,4896 26629,4899 26642,4900 26656,4899 26669,4895 26683,4890 26697,4890 26710,4894 26725,4895 26739,4895 26752,4898 26762,4902 26766,4903 26779,4904 26787,4901 26793,4899 26807,4898 26820,4901 26822,4902 26830,4901 26834,4899 26847,4887 26849,4885 26859,4874 26862,4871 26876,4864 26889,4866 26900,4875 26903,4878 26917,4886 26930,4882 26939,4874 26944,4869 26954,4861 26959,4859 26971,4856 26986,4862 26999,4871 27013,4874 27027,4870 27040,4864 27047,4862 27054,4860 27068,4860 27080,4862 27081,4862 27090,4862 27096,4860 27108,4857 27123,4860 27127,4863 27137,4870 27150,4874 27164,4869 27178,4862 27180,4861 27191,4859 27206,4859 27218,4862 27230,4862 27233,4861 27247,4854 27260,4852 27274,4860 27278,4862 27288,4865 27297,4861 27301,4858 27315,4851 27328,4857 27335,4863 27343,4865 27351,4861 27357,4854 27363,4847 27370,4838 27375,4835 27381,4835 27384,4836 27398,4843 27411,4836 27412,4835 27425,4824 27438,4830 27442,4837 27450,4850 27452,4854 27458,4862 27467,4865 27474,4861 27480,4857 27494,4852 27508,4858 27515,4862 27521,4863 27535,4862 27537,4862 27548,4857 27562,4850 27569,4848 27577,4847 27589,4847 27595,4848 27604,4850 27618,4851 27628,4848 27631,4847 27645,4835 27658,4827 27672,4831 27679,4835 27686,4840 27699,4844 27714,4841 27728,4834 27741,4828 27755,4826 27768,4830 27776,4836 27782,4841 27794,4848 27796,4849 27804,4848 27809,4844 27818,4835 27824,4829 27838,4825 27851,4834 27852,4835 27865,4843 27878,4843 27892,4842 27906,4844 27919,4845 27933,4843 27948,4838 27955,4835 27961,4833 27975,4831 27986,4835 27988,4836 28002,4839 28013,4835 28016,4833 28029,4826 28043,4826 28058,4832 28066,4836 28070,4837 28085,4840 28098,4838 28105,4835 28112,4831 28126,4822 28128,4822 28139,4818 28153,4821 28156,4822 28167,4829 28180,4830 28195,4825 28203,4822 28207,4820 28222,4820 28235,4822 28236,4822 28249,4827 28263,4831 28277,4833 28290,4830 28303,4822 28304,4821 28317,4816 28332,4822 28333,4823 28346,4831 28353,4835 28359,4837 28373,4837 28377,4834 28387,4827 28396,4821 28400,4819 28414,4817 28427,4819 28442,4821 28456,4820 28469,4817 28483,4815 28497,4817 28510,4818 28524,4813 28533,4808 28537,4807 28549,4809 28551,4811 28561,4822 28566,4827 28576,4835 28579,4837 28593,4837 28604,4835 28607,4834 28620,4832 28634,4834 28637,4836 28647,4840 28661,4843 28676,4839 28688,4835 28703,4834 28717,4833 28730,4832 28744,4831 28757,4832 28771,4834 28785,4834 28798,4834 28805,4835 28813,4836 28827,4838 28840,4839 28854,4839 28867,4839 28881,4840 28895,4843 28908,4846 28922,4846 28937,4843 28950,4839 28964,4837 28977,4837 28991,4840 29005,4843 29018,4843 29032,4841 29047,4837 29054,4835 29060,4834 29074,4835 29087,4840 29101,4848 29102,4849 29115,4851 29121,4848 29128,4842 29138,4835 29142,4833 29155,4835 29157,4836 29169,4842 29184,4841 29197,4837 29211,4844 29216,4850 29225,4857 29238,4858 29252,4850 29255,4848 29266,4843 29279,4842 29292,4849 29294,4850 29306,4859 29321,4855 29328,4847 29335,4839 29348,4837 29359,4849 29362,4853 29376,4858 29386,4848 29389,4845 29403,4838 29415,4850 29416,4852 29423,4862 29431,4869 29445,4868 29456,4861 29458,4860 29472,4857 29486,4860 29491,4862 29499,4866 29513,4867 29523,4861 29526,4858 29540,4850 29555,4861 29556,4863 29566,4875 29568,4876 29582,4875 29583,4874 29596,4862 29598,4861 29609,4859 29616,4862 29623,4868 29630,4875 29636,4880 29649,4889 29650,4889 29660,4888 29665,4885 29676,4874 29678,4873 29692,4864 29706,4866 29719,4873 29723,4875 29733,4881 29746,4884 29760,4880 29770,4875 29775,4873 29787,4869 29802,4872 29806,4875 29816,4884 29822,4889 29829,4894 29843,4894 29856,4890 29870,4889 29884,4891 29897,4892 29912,4890 29919,4888 29926,4886 29939,4884 29952,4888 29953,4889 29966,4897 29980,4901 29994,4900 30007,4902 30021,4906 30036,4905 30046,4901 30049,4900 30063,4900 30069,4902 30076,4905 30090,4908 30104,4904 30117,4901 30123,4902 30131,4904 30146,4913 30148,4915 30158,4924 30164,4928 30173,4931 30183,4928 30186,4926 30200,4916 30203,4914 30214,4911 30227,4914 30230,4916 30241,4927 30243,4928 30256,4940 30258,4942 30268,4945 30283,4942 30287,4941 30296,4937 30310,4934 30324,4938 30330,4942 30337,4947 30351,4953 30365,4952 30378,4943 30381,4940 30393,4930 30397,4927 30405,4926 30411,4929 30420,4936 30424,4942 30433,4955 30434,4957 30441,4969 30447,4976 30454,4981 30458,4981 30461,4979 30471,4967 30475,4960 30481,4954 30488,4950 30498,4956 30502,4961 30508,4969 30515,4980 30517,4982 30527,4995 30530,4998 30544,5003 30557,4993 30571,4980 30585,4979 30592,4982 30598,4986 30608,4995 30612,4999 30625,5002 30634,4993 30639,4983 30641,4981 30649,4967 30654,4964 30664,4969 30667,4973 30671,4981 30679,4996 30681,4998 30695,5002 30708,4995 30722,5006 30724,5009 30731,5022 30735,5029 30742,5034 30745,5034 30749,5030 30757,5020 30764,5008 30765,5006 30776,4999 30791,5006 30805,5001 30811,4993 30818,4982 30819,4980 30832,4973 30842,4982 30845,4986 30851,4996 30859,5008 30874,5013 30878,5006 30884,4989 30886,4976 30889,4960 30891,4952 30894,4932 30895,4922 30896,4911 30898,4899 30899,4887 30901,4875 30902,4862 30904,4849 30905,4836 30906,4823 30908,4809 30909,4795 30911,4782 30912,4768 30913,4754"/>
 <path fill="none" stroke="rgb(0,69,134)" stroke-width="80" stroke-linejoin="round" d="M 2398,12337 L 2405,12334 2411,12332 2425,12327 2439,12322 2444,12321 2452,12318 2467,12312 2477,12308 2479,12306 2494,12301 2508,12296 2515,12294 2521,12292 2535,12288 2549,12285 2562,12281 2564,12281 2576,12274 2586,12267 2589,12265 2604,12260 2618,12259 2631,12255 2632,12254 2645,12246 2654,12241 2659,12239 2672,12237 2686,12235 2699,12229 2701,12228 2713,12219 2722,12214 2728,12211 2741,12206 2755,12205 2769,12204 2778,12201 2782,12199 2796,12191 2803,12188 2809,12185 2823,12180 2833,12175 2838,12173 2850,12167 2865,12163 2875,12162 2879,12161 2892,12157 2906,12150 2912,12148 2919,12146 2933,12143 2948,12138 2953,12135 2960,12130 2973,12122 2975,12121 2989,12113 3002,12109 3013,12109 3016,12108 3029,12105 3043,12098 3049,12095 3057,12092 3070,12092 3085,12088 3093,12081 3099,12075 3106,12067 3112,12062 3126,12056 3127,12055 3139,12054 3153,12053 3167,12052 3180,12050 3194,12045 3199,12042 3209,12035 3217,12028 3222,12025 3236,12017 3239,12015 3249,12011 3263,12004 3267,12002 3277,11998 3290,11999 3301,12002 3304,12003 3319,12004 3326,12002 3331,11999 3346,11989 3347,11988 3359,11980 3364,11976 3373,11971 3387,11966 3400,11965 3414,11966 3424,11962 3429,11957 3436,11948 3441,11939 3444,11935 3456,11925 3468,11928 3483,11936 3491,11936 3497,11933 3510,11925 3516,11922 3524,11918 3538,11911 3541,11909 3551,11902 3560,11895 3566,11892 3578,11888 3593,11884 3596,11882 3607,11874 3613,11869 3620,11864 3634,11863 3645,11870 3648,11871 3661,11874 3675,11869 3688,11858 3690,11856 3703,11844 3705,11842 3717,11840 3725,11844 3730,11846 3744,11847 3751,11843 3758,11837 3767,11829 3771,11825 3784,11816 3785,11815 3798,11812 3812,11813 3827,11809 3832,11803 3840,11794 3844,11788 3854,11779 3868,11779 3881,11784 3895,11784 3908,11781 3922,11778 3932,11776 3937,11774 3949,11764 3951,11762 3964,11751 3967,11750 3978,11749 3984,11751 3991,11753 4005,11755 4017,11750 4018,11749 4032,11735 4044,11723 4047,11720 4059,11711 4062,11710 4074,11707 4088,11705 4101,11700 4112,11697 4115,11696 4128,11693 4142,11689 4156,11684 4158,11683 4169,11678 4184,11673 4192,11670 4198,11668 4211,11664 4225,11661 4238,11661 4249,11657 4252,11655 4262,11643 4266,11637 4271,11631 4279,11620 4282,11617 4293,11614 4308,11616 4321,11614 4335,11606 4339,11604 4348,11597 4359,11591 4362,11590 4376,11590 4379,11591 4389,11593 4398,11590 4403,11586 4412,11577 4418,11571 4430,11567 4445,11574 4458,11577 4472,11569 4479,11564 4486,11559 4499,11552 4505,11551 4513,11550 4523,11551 4528,11552 4540,11555 4555,11554 4562,11551 4567,11546 4575,11538 4582,11527 4585,11523 4596,11511 4609,11509 4620,11512 4623,11512 4637,11511 4650,11507 4665,11503 4677,11498 4692,11485 4704,11470 4706,11468 4719,11459 4722,11458 4733,11454 4747,11449 4757,11445 4760,11444 4774,11444 4777,11445 4787,11448 4802,11446 4804,11444 4816,11436 4822,11431 4829,11427 4843,11423 4857,11422 4870,11420 4877,11418 4884,11416 4897,11409 4904,11404 4911,11399 4923,11391 4926,11390 4939,11382 4949,11378 4953,11377 4967,11376 4980,11378 4981,11379 4994,11380 5001,11378 5007,11375 5021,11365 5023,11364 5036,11354 5040,11351 5048,11345 5060,11338 5063,11336 5077,11331 5090,11328 5104,11327 5117,11328 5130,11325 5131,11324 5144,11311 5146,11310 5154,11298 5158,11293 5173,11294 5177,11299 5187,11312 5200,11315 5204,11311 5213,11297 5214,11295 5221,11284 5227,11280 5241,11280 5255,11283 5268,11275 5274,11272 5283,11270 5293,11273 5297,11275 5310,11279 5324,11274 5325,11272 5337,11257 5344,11243 5350,11232 5351,11229 5357,11219 5365,11211 5378,11220 5388,11233 5392,11237 5407,11235 5410,11232 5420,11220 5421,11219 5434,11211 5447,11211 5461,11209 5469,11205 5475,11202 5485,11192 5488,11189 5498,11178 5502,11173 5511,11165 5517,11161 5529,11157 5544,11155 5557,11154 5561,11153 5571,11146 5578,11138 5585,11132 5598,11128 5612,11139 5614,11140 5626,11141 5629,11139 5639,11127 5641,11125 5654,11114 5666,11121 5674,11127 5681,11132 5695,11128 5698,11125 5708,11114 5709,11112 5719,11100 5722,11096 5732,11085 5736,11082 5749,11077 5764,11078 5776,11081 5791,11081 5805,11075 5808,11073 5818,11065 5823,11060 5832,11054 5846,11048 5859,11050 5873,11055 5886,11048 5888,11046 5898,11033 5901,11030 5915,11023 5928,11029 5942,11030 5953,11020 5956,11017 5968,11006 5969,11006 5983,11003 5996,11000 6008,10992 6010,10990 6025,10980 6038,10976 6052,10976 6066,10975 6079,10973 6093,10969 6097,10967 6106,10963 6120,10958 6135,10954 6147,10952 6162,10949 6173,10939 6176,10936 6183,10927 6189,10920 6195,10913 6203,10906 6216,10903 6230,10907 6244,10912 6257,10907 6264,10899 6272,10892 6277,10887 6286,10886 6289,10887 6299,10893 6313,10896 6326,10887 6340,10874 6342,10873 6354,10866 6364,10861 6367,10858 6381,10846 6396,10841 6409,10847 6411,10848 6423,10848 6424,10847 6436,10834 6444,10821 6450,10814 6463,10808 6464,10808 6466,10808 6477,10810 6491,10812 6506,10809 6510,10807 6519,10803 6533,10794 6546,10787 6560,10782 6563,10781 6574,10780 6586,10781 6587,10781 6600,10781 6601,10781 6616,10775 6626,10767 6628,10764 6637,10754 6643,10748 6650,10741 6656,10737 6670,10734 6684,10730 6690,10728 6697,10724 6711,10719 6725,10717 6738,10717 6753,10717 6763,10715 6765,10713 6780,10703 6783,10700 6794,10693 6807,10690 6821,10689 6830,10688 6835,10686 6848,10678 6852,10674 6862,10664 6865,10662 6875,10656 6887,10662 6890,10665 6898,10675 6904,10680 6917,10679 6921,10674 6931,10659 6938,10648 6945,10637 6947,10635 6958,10621 6972,10610 6980,10608 6985,10608 6999,10608 7007,10609 7014,10611 7027,10621 7028,10622 7041,10634 7044,10635 7048,10635 7055,10628 7059,10621 7067,10608 7068,10605 7077,10595 7082,10595 7092,10609 7095,10614 7101,10622 7109,10625 7112,10622 7119,10607 7124,10596 7125,10592 7129,10581 7135,10568 7137,10566 7151,10559 7164,10562 7178,10555 7192,10546 7205,10550 7212,10556 7219,10561 7234,10564 7245,10554 7246,10552 7252,10542 7258,10528 7261,10521 7264,10515 7271,10501 7274,10498 7284,10504 7288,10513 7289,10517 7295,10532 7299,10543 7302,10549 7315,10545 7316,10542 7322,10525 7326,10512 7329,10502 7331,10498 7335,10487 7342,10475 7343,10474 7356,10474 7371,10473 7383,10464 7385,10462 7398,10456 7412,10458 7425,10463 7439,10466 7453,10468 7466,10470 7480,10463 7482,10461 7492,10448 7493,10446 7500,10436 7508,10427 7515,10422 7522,10419 7535,10415 7548,10409 7549,10408 7563,10399 7570,10396 7576,10394 7590,10391 7603,10391 7617,10393 7632,10392 7645,10389 7659,10384 7663,10383 7673,10376 7680,10368 7686,10360 7689,10356 7699,10342 7700,10340 7713,10335 7726,10343 7727,10344 7742,10352 7755,10350 7769,10343 7770,10342 7783,10336 7796,10333 7810,10336 7823,10339 7837,10338 7847,10329 7852,10322 7854,10316 7860,10303 7864,10293 7867,10287 7874,10276 7879,10273 7889,10278 7893,10284 7899,10291 7906,10298 7920,10292 7922,10290 7931,10275 7933,10273 7941,10262 7947,10257 7961,10254 7974,10262 7976,10264 7989,10271 8001,10261 8003,10259 8009,10250 8016,10238 8017,10236 8027,10223 8030,10221 8043,10217 8057,10219 8071,10221 8084,10220 8098,10217 8113,10211 8114,10210 8126,10205 8140,10205 8153,10210 8166,10210 8167,10209 8180,10195 8181,10193 8188,10183 8194,10176 8200,10170 8208,10166 8221,10172 8223,10173 8230,10185 8235,10194 8238,10198 8250,10195 8255,10180 8258,10169 8263,10152 8265,10140 8268,10129 8273,10114 8277,10105 8278,10103 8285,10105 8291,10115 8293,10119 8298,10132 8304,10143 8305,10145 8315,10143 8318,10139 8324,10129 8331,10117 8333,10115 8345,10112 8354,10119 8360,10123 8373,10123 8381,10117 8387,10112 8401,10107 8414,10106 8418,10103 8428,10089 8435,10075 8441,10063 8442,10061 8451,10051 8455,10050 8461,10051 8470,10057 8482,10062 8497,10054 8501,10050 8511,10037 8522,10024 8524,10023 8537,10026 8538,10028 8544,10039 8549,10052 8552,10058 8557,10066 8565,10070 8571,10063 8577,10050 8579,10043 8582,10036 8588,10023 8592,10016 8607,10017 8621,10023 8632,10010 8634,10008 8641,9997 8648,9989 8662,9997 8664,9998 8675,10007 8687,9997 8689,9992 8694,9983 8699,9971 8702,9966 8708,9958 8716,9953 8731,9956 8736,9958 8744,9959 8758,9958 8759,9958 8772,9954 8785,9947 8789,9944 8799,9936 8805,9931 8812,9927 8826,9925 8841,9931 8842,9932 8853,9932 8855,9931 8868,9922 8873,9917 8882,9913 8895,9910 8909,9906 8912,9904 8922,9899 8936,9900 8942,9906 8951,9918 8952,9919 8963,9927 8973,9917 8978,9910 8981,9905 8988,9890 8992,9882 8995,9877 9005,9864 9019,9863 9022,9866 9030,9879 9032,9881 9038,9892 9046,9906 9060,9914 9072,9903 9073,9901 9079,9889 9083,9878 9088,9866 9089,9862 9093,9850 9099,9837 9102,9832 9115,9828 9126,9840 9129,9843 9142,9842 9146,9837 9156,9823 9170,9812 9176,9812 9183,9815 9197,9822 9212,9821 9222,9810 9225,9805 9229,9796 9235,9784 9239,9775 9242,9770 9252,9760 9266,9769 9270,9773 9280,9777 9290,9772 9293,9770 9307,9760 9310,9759 9317,9759 9322,9760 9334,9761 9340,9759 9349,9753 9359,9745 9362,9742 9376,9732 9390,9730 9394,9733 9403,9740 9412,9746 9417,9747 9422,9746 9432,9733 9433,9731 9440,9717 9444,9708 9446,9706 9454,9691 9459,9686 9469,9679 9471,9679 9476,9680 9486,9689 9490,9694 9500,9703 9513,9695 9514,9693 9523,9677 9527,9669 9530,9665 9541,9662 9547,9667 9554,9675 9560,9679 9569,9680 9571,9679 9581,9669 9586,9665 9596,9658 9610,9658 9623,9657 9637,9652 9651,9649 9664,9650 9678,9644 9683,9639 9691,9627 9693,9625 9704,9613 9706,9612 9720,9613 9723,9613 9730,9613 9733,9611 9743,9597 9747,9589 9750,9584 9757,9573 9761,9569 9774,9574 9788,9585 9801,9572 9808,9559 9815,9547 9817,9546 9828,9548 9830,9549 9838,9560 9843,9565 9857,9563 9860,9559 9870,9545 9871,9543 9884,9535 9898,9541 9911,9540 9921,9533 9925,9529 9940,9524 9952,9527 9967,9519 9975,9505 9981,9494 9982,9492 9990,9480 9994,9475 10008,9472 10020,9481 10021,9482 10031,9494 10035,9499 10050,9506 10062,9494 10064,9492 10074,9479 10077,9476 10091,9469 10104,9471 10118,9475 10131,9470 10134,9466 10142,9451 10145,9445 10148,9439 10157,9426 10159,9424 10168,9428 10172,9434 10177,9441 10187,9452 10198,9439 10201,9431 10204,9423 10208,9411 10212,9400 10214,9397 10228,9397 10231,9403 10237,9417 10241,9428 10246,9441 10255,9450 10269,9442 10272,9438 10281,9425 10282,9423 10288,9414 10296,9402 10299,9399 10311,9395 10324,9399 10329,9401 10335,9400 10338,9399 10351,9388 10352,9387 10364,9373 10365,9372 10379,9361 10381,9360 10391,9361 10392,9362 10406,9375 10421,9375 10422,9373 10429,9360 10433,9350 10435,9346 10441,9333 10448,9320 10461,9313 10475,9316 10489,9312 10498,9308 10502,9305 10516,9301 10531,9301 10543,9301 10558,9300 10570,9295 10573,9294 10585,9290 10599,9287 10612,9285 10619,9280 10626,9273 10630,9268 10640,9255 10642,9254 10653,9247 10668,9250 10676,9255 10680,9258 10695,9262 10707,9254 10709,9252 10716,9240 10722,9231 10725,9227 10736,9218 10750,9227 10752,9229 10763,9238 10777,9235 10786,9227 10790,9222 10796,9214 10805,9200 10813,9187 10819,9180 10825,9174 10832,9169 10846,9165 10860,9165 10873,9163 10877,9161 10887,9155 10900,9152 10912,9162 10914,9167 10922,9176 10929,9180 10936,9175 10942,9163 10943,9159 10947,9148 10953,9133 10956,9126 10959,9121 10970,9120 10972,9122 10980,9138 10983,9145 10986,9151 10992,9165 10997,9175 11010,9184 11019,9172 11023,9159 11024,9154 11027,9143 11030,9132 11033,9120 11037,9104 11039,9099 11040,9094 11047,9081 11051,9081 11053,9082 11060,9095 11066,9109 11074,9122 11079,9121 11080,9120 11087,9105 11091,9093 11093,9089 11096,9080 11100,9068 11107,9054 11120,9048 11131,9056 11134,9058 11149,9068 11150,9069 11161,9070 11167,9069 11176,9064 11190,9059 11203,9065 11210,9069 11217,9071 11227,9068 11230,9065 11240,9054 11244,9048 11248,9042 11258,9028 11271,9017 11286,9022 11293,9029 11300,9036 11313,9038 11325,9029 11327,9027 11340,9016 11341,9014 11354,9006 11368,9003 11378,9002 11381,9002 11395,8991 11398,8988 11407,8976 11410,8971 11417,8962 11423,8957 11437,8950 11450,8950 11464,8951 11478,8949 11480,8949 11491,8945 11505,8937 11507,8936 11520,8929 11532,8929 11544,8936 11547,8938 11560,8935 11567,8921 11571,8909 11574,8901 11577,8893 11581,8882 11588,8871 11601,8883 11608,8899 11614,8910 11615,8912 11629,8910 11631,8908 11638,8896 11642,8888 11647,8882 11657,8872 11664,8869 11669,8869 11684,8867 11698,8863 11711,8856 11725,8848 11739,8856 11751,8870 11752,8871 11767,8869 11775,8856 11779,8848 11782,8842 11792,8828 11794,8827 11808,8825 11821,8829 11822,8830 11835,8831 11839,8830 11849,8819 11852,8815 11859,8802 11862,8797 11866,8789 11876,8778 11889,8780 11904,8790 11918,8794 11929,8789 11931,8788 11942,8776 11945,8772 11953,8763 11958,8760 11972,8763 11973,8764 11986,8773 11999,8774 12013,8765 12016,8762 12028,8750 12029,8748 12039,8736 12041,8734 12049,8722 12055,8714 12058,8710 12068,8701 12082,8708 12085,8712 12093,8724 12096,8727 12109,8726 12112,8723 12120,8710 12123,8706 12138,8702 12146,8712 12150,8719 12155,8725 12165,8732 12178,8722 12185,8709 12190,8696 12192,8692 12196,8681 12202,8667 12206,8658 12208,8655 12219,8648 12228,8660 12233,8671 12240,8685 12247,8691 12257,8682 12260,8678 12265,8670 12272,8657 12275,8653 12287,8644 12289,8643 12302,8636 12306,8630 12313,8617 12316,8611 12320,8603 12329,8592 12330,8591 12336,8591 12343,8597 12350,8606 12357,8611 12369,8604 12370,8602 12379,8589 12385,8583 12397,8590 12399,8592 12406,8604 12412,8613 12419,8617 12420,8617 12426,8613 12433,8603 12439,8592 12440,8590 12449,8577 12453,8573 12467,8567 12480,8568 12494,8574 12500,8578 12507,8584 12517,8591 12522,8593 12530,8590 12536,8583 12540,8575 12546,8563 12549,8557 12552,8551 12560,8537 12563,8535 12577,8536 12590,8537 12604,8524 12617,8515 12631,8524 12633,8525 12646,8535 12659,8530 12666,8524 12673,8517 12681,8510 12687,8507 12700,8503 12714,8501 12727,8497 12741,8488 12746,8484 12756,8477 12768,8472 12783,8474 12797,8482 12810,8483 12818,8470 12824,8455 12828,8441 12833,8427 12837,8414 12841,8403 12851,8394 12863,8406 12865,8410 12871,8419 12878,8425 12893,8423 12900,8417 12907,8410 12913,8405 12920,8400 12934,8403 12935,8405 12947,8418 12948,8419 12958,8418 12961,8413 12965,8402 12970,8389 12974,8374 12975,8369 12977,8364 12981,8350 12987,8338 12988,8336 12997,8339 13003,8349 13004,8352 13010,8366 13017,8380 13030,8388 13042,8378 13044,8376 13052,8363 13057,8356 13060,8351 13071,8338 13084,8339 13085,8340 13098,8352 13112,8357 13125,8351 13127,8350 13140,8340 13141,8338 13154,8326 13155,8324 13167,8312 13168,8311 13181,8301 13195,8300 13208,8305 13222,8300 13225,8298 13237,8286 13238,8285 13249,8284 13254,8286 13264,8295 13277,8294 13284,8284 13291,8271 13299,8258 13305,8254 13318,8259 13332,8268 13346,8263 13354,8258 13359,8254 13374,8246 13375,8245 13386,8242 13401,8239 13414,8232 13415,8231 13426,8218 13428,8216 13435,8206 13442,8196 13445,8192 13456,8182 13469,8184 13476,8193 13483,8207 13491,8221 13496,8229 13511,8220 13512,8217 13518,8203 13522,8192 13525,8185 13528,8178 13536,8165 13538,8164 13552,8160 13566,8156 13572,8153 13579,8149 13593,8154 13606,8167 13621,8166 13622,8165 13631,8151 13635,8143 13638,8139 13648,8130 13662,8139 13663,8140 13673,8153 13676,8156 13689,8165 13703,8157 13706,8152 13713,8137 13716,8131 13719,8124 13725,8110 13730,8098 13738,8086 13745,8079 13758,8083 13760,8087 13768,8102 13772,8111 13773,8114 13780,8127 13786,8132 13795,8126 13799,8117 13802,8111 13807,8096 13812,8086 13813,8083 13820,8072 13826,8068 13840,8066 13855,8061 13857,8059 13867,8055 13882,8057 13887,8060 13896,8064 13909,8062 13913,8059 13923,8049 13926,8046 13936,8038 13946,8033 13950,8031 13964,8027 13977,8022 13984,8020 13992,8018 14006,8016 14019,8010 14024,8006 14033,8000 14046,7996 14060,8003 14066,8008 14074,8013 14087,8015 14101,8008 14104,8006 14116,7994 14117,7992 14129,7979 14143,7968 14144,7967 14156,7962 14170,7959 14184,7956 14194,7953 14197,7952 14211,7947 14226,7945 14239,7943 14247,7940 14253,7937 14266,7927 14280,7916 14286,7913 14294,7909 14307,7904 14316,7900 14321,7897 14336,7890 14340,7887 14348,7883 14363,7883 14373,7888 14376,7889 14390,7887 14403,7874 14404,7872 14417,7863 14431,7866 14445,7861 14447,7859 14454,7846 14458,7836 14460,7833 14465,7820 14473,7810 14475,7808 14483,7808 14485,7809 14498,7822 14500,7824 14514,7834 14517,7835 14527,7836 14541,7835 14544,7834 14555,7827 14562,7820 14568,7813 14572,7808 14582,7793 14592,7780 14595,7776 14605,7767 14610,7765 14624,7767 14625,7768 14637,7776 14651,7776 14664,7767 14665,7766 14678,7759 14692,7756 14697,7754 14705,7746 14710,7740 14719,7728 14734,7725 14738,7729 14747,7738 14751,7742 14761,7741 14769,7728 14775,7717 14777,7714 14785,7701 14788,7699 14798,7702 14802,7705 14815,7715 14822,7715 14829,7710 14839,7700 14844,7696 14854,7687 14857,7685 14871,7679 14885,7676 14892,7675 14898,7672 14912,7661 14925,7654 14939,7662 14952,7676 14954,7677 14966,7674 14978,7661 14981,7658 14995,7654 15008,7659 15022,7653 15028,7647 15035,7637 15038,7634 15049,7622 15051,7622 15063,7616 15076,7609 15078,7608 15091,7599 15105,7597 15118,7606 15121,7609 15132,7612 15141,7608 15145,7604 15153,7594 15159,7587 15165,7581 15173,7571 15176,7568 15186,7559 15192,7554 15200,7549 15215,7543 15218,7542 15225,7542 15228,7543 15242,7555 15243,7557 15250,7569 15255,7577 15259,7583 15269,7588 15275,7580 15279,7568 15283,7554 15288,7539 15290,7530 15295,7515 15296,7511 15300,7501 15310,7493 15322,7505 15325,7509 15329,7517 15337,7531 15352,7538 15360,7527 15365,7515 15369,7502 15373,7489 15379,7475 15393,7478 15399,7493 15403,7506 15406,7514 15407,7517 15420,7522 15425,7514 15429,7502 15433,7490 15435,7486 15439,7476 15447,7470 15455,7479 15462,7491 15475,7495 15479,7487 15483,7476 15489,7460 15493,7448 15499,7436 15503,7431 15514,7438 15516,7440 15523,7452 15530,7461 15533,7464 15544,7467 15553,7463 15557,7460 15566,7450 15572,7442 15576,7436 15584,7423 15594,7409 15599,7404 15606,7397 15613,7393 15626,7392 15640,7397 15641,7397 15654,7400 15666,7397 15667,7396 15679,7383 15681,7379 15689,7369 15694,7362 15709,7359 15723,7370 15724,7371 15736,7378 15750,7381 15764,7383 15769,7384 15777,7384 15791,7374 15794,7370 15804,7357 15818,7343 15832,7340 15845,7338 15859,7331 15873,7325 15886,7323 15899,7316 15900,7315 15910,7303 15913,7298 15919,7290 15927,7280 15932,7277 15942,7273 15954,7274 15969,7276 15976,7278 15983,7279 15996,7283 16010,7282 16019,7277 16023,7273 16032,7263 16037,7255 16042,7249 16050,7236 16052,7234 16059,7224 16064,7220 16079,7223 16082,7226 16092,7240 16093,7242 16100,7252 16106,7259 16114,7264 16120,7264 16133,7249 16139,7236 16144,7224 16147,7219 16153,7211 16161,7210 16164,7212 16174,7222 16177,7225 16186,7224 16189,7221 16194,7211 16201,7195 16203,7192 16207,7184 16216,7177 16226,7186 16230,7191 16237,7198 16243,7199 16244,7198 16254,7184 16257,7178 16261,7169 16268,7156 16271,7152 16284,7147 16298,7152 16313,7158 16326,7158 16340,7149 16346,7144 16353,7141 16367,7143 16373,7145 16380,7145 16381,7144 16393,7129 16394,7126 16398,7117 16404,7105 16408,7096 16411,7092 16423,7081 16435,7086 16441,7092 16450,7105 16458,7119 16463,7124 16477,7126 16485,7116 16491,7108 16494,7103 16503,7090 16504,7089 16515,7078 16518,7076 16533,7079 16545,7087 16557,7077 16560,7071 16563,7063 16567,7050 16571,7037 16572,7032 16575,7024 16582,7010 16587,7008 16592,7012 16601,7026 16611,7039 16614,7040 16620,7038 16628,7027 16630,7025 16641,7014 16655,7025 16668,7039 16670,7039 16675,7038 16682,7032 16688,7025 16697,7018 16711,7024 16714,7026 16724,7034 16738,7028 16741,7025 16749,7010 16751,7008 16755,6998 16761,6984 16765,6974 16767,6971 16774,6959 16779,6954 16787,6959 16792,6971 16794,6975 16798,6986 16804,6999 16807,7004 16821,6999 16827,6984 16831,6971 16834,6963 16837,6955 16841,6946 16848,6937 16859,6932 16861,6932 16875,6919 16884,6904 16889,6897 16902,6903 16904,6907 16909,6923 16914,6936 16916,6944 16918,6948 16924,6959 16931,6962 16934,6959 16941,6945 16944,6938 16946,6930 16952,6916 16958,6907 16959,6905 16971,6900 16985,6899 16995,6892 16999,6888 17012,6880 17026,6881 17041,6879 17042,6879 17053,6867 17055,6866 17068,6857 17081,6865 17082,6867 17095,6875 17106,6866 17109,6861 17113,6853 17121,6839 17122,6837 17136,6828 17151,6833 17163,6834 17178,6825 17188,6813 17190,6808 17198,6799 17205,6793 17218,6801 17219,6804 17225,6816 17230,6828 17232,6831 17239,6841 17246,6841 17249,6839 17258,6825 17260,6820 17265,6811 17272,6798 17273,6796 17282,6786 17288,6781 17300,6775 17309,6773 17315,6773 17329,6772 17342,6770 17356,6765 17367,6759 17370,6758 17383,6752 17397,6748 17402,6747 17410,6742 17422,6733 17425,6731 17439,6721 17452,6723 17466,6731 17470,6734 17480,6738 17493,6736 17497,6733 17507,6722 17510,6719 17520,6708 17522,6707 17534,6704 17543,6707 17549,6711 17562,6716 17576,6713 17583,6706 17590,6695 17592,6693 17600,6680 17603,6676 17617,6670 17630,6679 17632,6680 17644,6683 17649,6680 17659,6667 17666,6654 17671,6642 17673,6640 17680,6626 17686,6618 17690,6613 17700,6612 17703,6614 17713,6626 17714,6627 17727,6634 17736,6626 17740,6620 17744,6614 17754,6604 17769,6612 17771,6615 17781,6619 17790,6613 17796,6604 17798,6599 17806,6587 17810,6581 17823,6574 17837,6577 17850,6577 17860,6574 17864,6572 17878,6569 17891,6567 17906,6564 17920,6561 17933,6565 17947,6569 17958,6560 17960,6558 17967,6545 17974,6532 17981,6521 17988,6515 18001,6515 18015,6517 18030,6515 18043,6515 18057,6518 18070,6512 18074,6506 18081,6493 18084,6487 18088,6479 18095,6466 18098,6463 18111,6456 18125,6462 18132,6469 18140,6477 18145,6481 18152,6484 18161,6481 18167,6475 18172,6468 18180,6458 18182,6453 18192,6441 18194,6439 18204,6427 18208,6422 18215,6413 18221,6407 18228,6401 18235,6400 18240,6403 18248,6415 18250,6418 18255,6429 18262,6441 18264,6442 18275,6441 18277,6439 18285,6426 18289,6419 18292,6414 18304,6408 18318,6416 18331,6420 18344,6414 18345,6413 18358,6400 18359,6399 18372,6387 18387,6383 18399,6386 18414,6380 18418,6374 18426,6361 18428,6358 18436,6348 18441,6345 18451,6349 18455,6353 18465,6362 18469,6365 18482,6365 18496,6363 18509,6365 18521,6361 18524,6358 18531,6346 18536,6333 18538,6330 18542,6320 18549,6307 18551,6305 18565,6306 18569,6310 18579,6319 18592,6316 18601,6308 18606,6303 18619,6303 18631,6309 18633,6309 18636,6308 18648,6293 18653,6281 18661,6266 18671,6255 18675,6256 18689,6266 18695,6269 18701,6269 18702,6268 18715,6254 18716,6251 18723,6240 18729,6231 18730,6228 18740,6216 18743,6213 18758,6212 18762,6216 18770,6225 18775,6230 18785,6234 18796,6228 18799,6226 18812,6220 18826,6225 18839,6223 18846,6214 18853,6201 18860,6187 18868,6176 18880,6166 18895,6168 18909,6174 18913,6177 18922,6183 18929,6191 18936,6198 18942,6203 18949,6203 18950,6202 18960,6186 18963,6179 18965,6176 18970,6162 18977,6149 18979,6148 18987,6150 18990,6154 18996,6164 19003,6176 19005,6178 19015,6175 19019,6167 19022,6160 19026,6148 19032,6132 19036,6122 19046,6113 19059,6120 19063,6123 19073,6123 19074,6122 19087,6111 19090,6108 19100,6101 19114,6099 19124,6095 19129,6092 19140,6082 19142,6081 19156,6084 19164,6097 19169,6105 19172,6110 19183,6120 19196,6108 19197,6106 19204,6095 19210,6087 19214,6083 19224,6077 19237,6069 19239,6067 19247,6054 19251,6046 19254,6041 19261,6028 19266,6023 19279,6018 19293,6030 19304,6045 19307,6048 19320,6056 19333,6043 19334,6040 19340,6029 19348,6014 19361,6007 19376,6014 19388,6013 19403,6003 19404,6003 19417,6003 19420,6004 19430,6009 19444,6006 19447,6003 19457,5990 19458,5987 19467,5975 19471,5970 19478,5963 19486,5958 19498,5954 19513,5958 19525,5964 19527,5965 19540,5972 19554,5970 19563,5963 19568,5957 19575,5949 19581,5944 19595,5940 19607,5937 19608,5936 19621,5923 19623,5921 19633,5910 19637,5906 19650,5904 19664,5902 19670,5897 19678,5885 19680,5882 19691,5872 19704,5885 19705,5888 19710,5897 19717,5911 19718,5913 19732,5908 19738,5896 19744,5881 19747,5874 19750,5868 19757,5857 19760,5855 19774,5853 19788,5849 19797,5843 19801,5839 19812,5831 19815,5829 19828,5826 19842,5828 19848,5831 19857,5835 19869,5838 19884,5834 19891,5830 19898,5825 19908,5817 19911,5814 19919,5803 19925,5794 19928,5789 19935,5776 19938,5772 19952,5771 19957,5780 19961,5792 19965,5805 19966,5809 19971,5821 19976,5831 19979,5833 19984,5829 19989,5815 19994,5800 19996,5789 20001,5772 20004,5762 20008,5751 20021,5748 20024,5751 20034,5765 20035,5766 20046,5763 20048,5761 20055,5750 20062,5740 20065,5737 20076,5736 20079,5738 20089,5745 20104,5745 20113,5736 20118,5732 20126,5724 20131,5720 20143,5711 20145,5710 20158,5699 20161,5697 20172,5690 20186,5696 20189,5699 20199,5712 20213,5720 20225,5710 20228,5707 20235,5696 20241,5687 20243,5682 20252,5671 20255,5668 20268,5665 20276,5672 20282,5678 20290,5685 20296,5684 20308,5670 20309,5668 20316,5657 20323,5652 20335,5659 20338,5662 20345,5673 20350,5680 20365,5684 20378,5674 20380,5671 20390,5658 20392,5656 20399,5644 20406,5631 20413,5616 20419,5604 20426,5590 20433,5579 20435,5577 20447,5573 20456,5579 20460,5583 20470,5592 20475,5596 20487,5602 20502,5596 20506,5591 20516,5582 20529,5579 20543,5584 20555,5577 20557,5572 20562,5564 20567,5551 20570,5545 20575,5536 20583,5525 20584,5524 20596,5526 20597,5527 20612,5538 20613,5539 20626,5546 20636,5553 20639,5555 20652,5566 20653,5567 20667,5564 20676,5550 20680,5541 20682,5538 20687,5525 20693,5512 20694,5509 20702,5497 20707,5490 20722,5489 20731,5501 20736,5507 20740,5514 20749,5520 20760,5510 20763,5505 20767,5497 20774,5484 20777,5480 20790,5479 20800,5486 20804,5488 20813,5484 20817,5478 20821,5471 20829,5457 20831,5452 20837,5445 20846,5442 20856,5446 20859,5448 20873,5453 20887,5452 20900,5454 20914,5457 20926,5445 20927,5442 20931,5432 20937,5418 20941,5407 20943,5404 20953,5392 20956,5393 20957,5393 20968,5408 20977,5419 20983,5422 20991,5419 20997,5412 21003,5405 21010,5397 21016,5391 21024,5386 21036,5379 21037,5378 21051,5368 21055,5365 21065,5362 21078,5366 21080,5366 21091,5366 21093,5365 21104,5351 21107,5347 21113,5338 21120,5330 21134,5333 21147,5338 21158,5324 21161,5317 21164,5311 21170,5299 21175,5293 21184,5300 21188,5311 21190,5316 21194,5331 21197,5341 21201,5356 21202,5360 21205,5368 21214,5379 21217,5379 21228,5365 21230,5363 21235,5352 21242,5339 21244,5337 21252,5324 21257,5319 21262,5311 21271,5300 21272,5299 21284,5285 21285,5284 21298,5274 21304,5273 21312,5273 21327,5279 21338,5287 21340,5288 21354,5298 21358,5300 21367,5301 21374,5299 21381,5293 21387,5285 21395,5271 21402,5260 21408,5252 21417,5246 21422,5245 21435,5247 21449,5251 21464,5253 21477,5252 21488,5246 21491,5244 21499,5233 21505,5224 21509,5218 21518,5208 21521,5206 21532,5206 21534,5207 21545,5213 21559,5210 21564,5206 21574,5195 21576,5192 21586,5186 21601,5183 21611,5180 21615,5178 21628,5168 21631,5166 21642,5154 21644,5153 21655,5142 21656,5140 21669,5132 21683,5130 21696,5132 21711,5136 21718,5141 21725,5148 21731,5155 21738,5162 21746,5167 21749,5167 21752,5165 21762,5152 21765,5147 21769,5139 21778,5126 21779,5124 21793,5119 21806,5115 21808,5114 21818,5098 21820,5093 21825,5085 21833,5073 21835,5072 21846,5075 21848,5076 21860,5088 21862,5088 21869,5087 21875,5081 21882,5072 21889,5064 21895,5061 21899,5061 21903,5062 21916,5069 21930,5062 21932,5060 21942,5046 21945,5043 21958,5036 21972,5044 21979,5048 21985,5050 21999,5050 22006,5047 22013,5043 22026,5033 22040,5024 22047,5021 22055,5019 22067,5016 22082,5011 22089,5008 22095,5003 22105,4994 22109,4989 22119,4981 22123,4978 22136,4975 22150,4978 22159,4981 22164,4983 22177,4982 22180,4981 22192,4973 22199,4967 22204,4964 22219,4962 22233,4964 22246,4961 22256,4953 22260,4947 22264,4941 22272,4927 22274,4921 22279,4913 22287,4901 22297,4902 22301,4907 22307,4916 22314,4927 22316,4928 22326,4927 22329,4923 22334,4912 22340,4900 22343,4894 22347,4887 22356,4882 22369,4889 22370,4890 22384,4892 22390,4887 22397,4879 22403,4874 22411,4872 22417,4875 22424,4879 22438,4879 22444,4873 22453,4861 22466,4849 22480,4855 22494,4858 22504,4848 22507,4844 22516,4834 22521,4831 22533,4836 22534,4837 22548,4845 22558,4834 22563,4827 22567,4820 22576,4809 22577,4808 22583,4809 22590,4818 22593,4822 22603,4836 22604,4837 22615,4835 22617,4833 22625,4819 22631,4808 22638,4794 22644,4784 22647,4780 22658,4772 22673,4782 22674,4784 22683,4796 22685,4799 22700,4801 22705,4795 22714,4780 22721,4767 22727,4757 22728,4755 22740,4742 22741,4741 22754,4742 22755,4743 22767,4756 22768,4757 22782,4767 22795,4760 22800,4755 22808,4742 22810,4739 22815,4728 22822,4715 22824,4712 22831,4701 22837,4695 22851,4693 22862,4703 22864,4705 22871,4717 22878,4728 22880,4729 22892,4731 22895,4727 22901,4713 22905,4701 22909,4688 22915,4674 22919,4667 22934,4672 22937,4676 22947,4688 22948,4689 22952,4689 22961,4678 22964,4674 22971,4661 22974,4656 22988,4651 23002,4663 23015,4670 23029,4666 23034,4662 23044,4651 23045,4649 23054,4636 23056,4631 23062,4621 23069,4608 23071,4606 23078,4594 23084,4587 23089,4583 23098,4583 23112,4595 23114,4597 23125,4603 23139,4597 23141,4596 23154,4584 23156,4582 23166,4574 23178,4570 23181,4570 23194,4575 23208,4584 23222,4589 23235,4586 23241,4582 23249,4574 23255,4568 23263,4564 23276,4566 23283,4570 23291,4573 23303,4570 23305,4569 23318,4557 23319,4556 23331,4542 23332,4541 23343,4529 23345,4528 23359,4522 23373,4522 23386,4522 23400,4518 23406,4516 23413,4513 23428,4506 23436,4503 23442,4501 23455,4499 23469,4495 23483,4490 23496,4486 23510,4483 23523,4476 23536,4462 23537,4461 23547,4448 23552,4443 23559,4436 23565,4432 23579,4427 23593,4433 23602,4437 23606,4438 23612,4437 23620,4432 23633,4422 23647,4414 23657,4410 23662,4409 23674,4408 23689,4403 23696,4396 23703,4387 23706,4383 23716,4375 23730,4383 23732,4385 23743,4398 23752,4396 23757,4389 23760,4383 23767,4369 23772,4360 23774,4355 23784,4347 23799,4350 23813,4348 23820,4343 23826,4340 23840,4341 23844,4345 23853,4353 23859,4357 23867,4357 23881,4343 23894,4332 23909,4334 23923,4336 23933,4330 23936,4327 23946,4316 23950,4310 23956,4303 23963,4295 23977,4295 23984,4306 23991,4320 24000,4332 24004,4334 24010,4329 24017,4314 24018,4311 24021,4303 24027,4289 24033,4278 24034,4276 24046,4275 24050,4278 24060,4285 24073,4277 24081,4264 24087,4255 24090,4250 24101,4239 24104,4237 24114,4235 24123,4238 24128,4241 24143,4247 24155,4240 24158,4237 24168,4223 24170,4221 24178,4210 24183,4206 24197,4199 24211,4200 24224,4202 24238,4203 24251,4198 24253,4197 24264,4185 24265,4183 24274,4169 24280,4161 24282,4158 24292,4154 24298,4158 24307,4169 24310,4172 24321,4180 24334,4170 24344,4156 24348,4151 24354,4145 24362,4138 24375,4131 24390,4122 24402,4122 24412,4134 24417,4141 24420,4146 24430,4159 24431,4159 24438,4158 24444,4150 24447,4145 24454,4129 24458,4120 24459,4117 24467,4104 24472,4098 24485,4092 24489,4092 24499,4096 24512,4103 24527,4104 24541,4094 24544,4091 24554,4079 24555,4078 24567,4065 24568,4064 24582,4062 24588,4065 24595,4071 24609,4078 24612,4078 24622,4075 24636,4064 24651,4052 24652,4051 24664,4039 24665,4037 24675,4024 24678,4021 24689,4011 24692,4010 24705,4012 24719,4017 24732,4016 24743,4012 24746,4010 24761,4002 24772,3999 24773,3999 24778,3999 24788,4002 24802,4005 24815,3998 24828,3984 24829,3983 24842,3973 24843,3972 24856,3970 24863,3973 24871,3978 24883,3986 24893,3985 24898,3982 24906,3972 24912,3965 24918,3958 24925,3952 24939,3947 24952,3946 24953,3946 24966,3944 24980,3941 24993,3937 25002,3932 25008,3927 25015,3918 25022,3909 25026,3905 25035,3899 25049,3901 25062,3904 25076,3896 25080,3892 25090,3882 25093,3879 25103,3871 25112,3866 25117,3864 25132,3865 25135,3866 25145,3871 25159,3879 25162,3880 25172,3882 25186,3880 25189,3879 25200,3869 25205,3865 25213,3853 25214,3851 25223,3839 25227,3833 25234,3825 25242,3820 25254,3816 25269,3821 25280,3827 25282,3827 25296,3828 25300,3825 25310,3816 25313,3812 25322,3798 25323,3796 25329,3785 25337,3771 25349,3759 25352,3759 25360,3760 25364,3762 25379,3767 25391,3766 25406,3764 25420,3767 25433,3767 25444,3759 25447,3756 25456,3746 25461,3738 25466,3732 25474,3722 25477,3719 25489,3713 25501,3716 25509,3721 25516,3723 25526,3719 25530,3716 25540,3707 25543,3705 25557,3704 25563,3707 25571,3713 25581,3720 25584,3721 25598,3719 25608,3706 25611,3700 25616,3691 25621,3678 25626,3669 25627,3666 25638,3654 25640,3653 25647,3654 25653,3657 25664,3667 25667,3670 25681,3679 25694,3675 25704,3666 25708,3661 25715,3653 25721,3648 25735,3642 25738,3640 25750,3632 25754,3627 25763,3616 25765,3613 25777,3606 25791,3613 25794,3615 25804,3619 25817,3613 25818,3611 25830,3599 25831,3598 25842,3586 25845,3584 25860,3577 25872,3576 25887,3577 25901,3576 25910,3574 25914,3573 25928,3574 25941,3575 25948,3573 25955,3569 25970,3560 25982,3560 25984,3561 25997,3564 26004,3561 26011,3551 26014,3546 26021,3532 26024,3527 26028,3520 26038,3513 26051,3517 26065,3517 26074,3507 26079,3499 26084,3493 26092,3483 26095,3480 26107,3475 26121,3481 26134,3494 26148,3502 26159,3494 26161,3492 26171,3481 26175,3476 26186,3467 26189,3466 26202,3463 26216,3464 26229,3465 26244,3457 26246,3454 26258,3442 26259,3441 26271,3429 26272,3428 26285,3417 26289,3415 26299,3411 26312,3413 26318,3415 26326,3420 26339,3426 26353,3419 26358,3413 26368,3401 26381,3396 26393,3402 26395,3402 26406,3401 26409,3398 26418,3387 26422,3380 26426,3373 26436,3362 26438,3361 26449,3358 26462,3362 26463,3363 26478,3369 26490,3372 26505,3366 26512,3361 26519,3354 26526,3347 26532,3342 26545,3335 26546,3334 26555,3335 26559,3336 26573,3338 26580,3335 26588,3329 26595,3321 26600,3315 26609,3308 26615,3304 26629,3296 26630,3295 26642,3287 26649,3282 26656,3279 26669,3282 26670,3283 26683,3291 26697,3295 26710,3289 26720,3281 26725,3277 26735,3268 26739,3265 26752,3261 26766,3261 26779,3255 26780,3254 26793,3241 26807,3229 26820,3225 26834,3222 26849,3217 26854,3215 26862,3215 26869,3216 26876,3218 26889,3224 26903,3228 26917,3222 26923,3214 26930,3201 26937,3188 26944,3179 26950,3175 26957,3176 26959,3177 26971,3184 26986,3186 26999,3182 27013,3177 27017,3176 27027,3172 27040,3167 27050,3162 27054,3159 27067,3148 27068,3147 27081,3136 27083,3135 27096,3130 27108,3129 27123,3123 27124,3122 27137,3111 27141,3109 27150,3110 27164,3118 27178,3113 27183,3107 27190,3096 27191,3094 27201,3082 27206,3081 27210,3083 27218,3091 27224,3097 27233,3101 27241,3096 27247,3089 27253,3082 27260,3073 27264,3069 27274,3062 27288,3056 27301,3049 27315,3045 27328,3050 27343,3053 27355,3042 27357,3040 27365,3030 27370,3026 27382,3030 27384,3031 27395,3044 27398,3046 27411,3044 27414,3042 27425,3029 27438,3024 27452,3028 27467,3021 27471,3015 27480,3002 27491,2989 27494,2987 27508,2984 27521,2983 27535,2979 27544,2976 27548,2975 27562,2970 27577,2963 27589,2954 27595,2949 27604,2944 27618,2939 27631,2937 27637,2937 27645,2936 27658,2930 27665,2923 27672,2914 27676,2909 27686,2900 27699,2900 27714,2905 27728,2897 27729,2896 27741,2889 27755,2895 27758,2897 27768,2904 27781,2896 27782,2893 27788,2883 27795,2870 27796,2868 27809,2858 27824,2862 27838,2860 27843,2856 27851,2850 27859,2843 27865,2842 27878,2842 27883,2844 27892,2846 27906,2846 27912,2844 27919,2838 27928,2830 27933,2824 27942,2817 27948,2816 27956,2817 27961,2819 27975,2820 27979,2817 27988,2808 27990,2804 28000,2789 28002,2787 28010,2776 28016,2770 28029,2765 28043,2774 28048,2778 28058,2783 28069,2777 28070,2775 28080,2764 28085,2759 28098,2752 28112,2752 28126,2751 28128,2751 28139,2748 28153,2745 28167,2742 28175,2737 28180,2732 28189,2724 28195,2718 28206,2711 28207,2710 28222,2709 28236,2704 28245,2698 28249,2694 28263,2687 28277,2686 28290,2687 28304,2686 28309,2684 28317,2678 28326,2670 28332,2664 28342,2657 28346,2657 28352,2658 28359,2662 28373,2672 28387,2674 28399,2671 28400,2670 28414,2663 28423,2657 28427,2653 28436,2643 28442,2635 28446,2630 28456,2620 28460,2618 28467,2618 28469,2619 28483,2625 28497,2625 28509,2618 28510,2617 28524,2604 28537,2593 28540,2591 28551,2584 28566,2580 28579,2579 28584,2578 28593,2577 28607,2575 28620,2571 28634,2567 28643,2565 28647,2564 28661,2562 28676,2560 28688,2556 28698,2551 28703,2548 28717,2541 28726,2538 28730,2537 28744,2532 28754,2525 28757,2523 28771,2514 28785,2514 28798,2514 28803,2512 28813,2502 28817,2497 28827,2488 28840,2486 28854,2490 28867,2485 28881,2472 28895,2459 28897,2458 28908,2452 28922,2446 28924,2445 28937,2440 28950,2436 28961,2432 28964,2431 28977,2425 28988,2419 28991,2417 29005,2411 29018,2408 29025,2405 29032,2400 29041,2392 29047,2387 29060,2385 29069,2394 29074,2399 29079,2406 29087,2412 29101,2408 29104,2405 29115,2395 29119,2392 29128,2387 29142,2382 29155,2379 29157,2379 29169,2376 29184,2372 29197,2365 29209,2352 29211,2350 29219,2339 29225,2333 29238,2329 29252,2332 29266,2334 29279,2330 29286,2326 29294,2320 29304,2312 29306,2309 29321,2299 29335,2295 29348,2294 29362,2294 29376,2293 29389,2291 29403,2288 29413,2286 29416,2286 29431,2281 29443,2273 29445,2272 29458,2262 29462,2260 29472,2254 29486,2246 29499,2238 29508,2233 29513,2230 29526,2227 29540,2226 29555,2221 29559,2219 29568,2215 29582,2208 29585,2206 29596,2201 29609,2196 29619,2193 29623,2192 29636,2188 29650,2183 29662,2180 29665,2179 29678,2177 29692,2174 29706,2169 29715,2166 29719,2165 29733,2160 29746,2158 29760,2155 29765,2153 29775,2147 29783,2140 29787,2136 29799,2126 29802,2125 29816,2122 29829,2118 29836,2113 29843,2107 29856,2102 29870,2109 29877,2114 29884,2115 29887,2113 29897,2101 29899,2099 29906,2086 29912,2078 29916,2073 29926,2069 29939,2071 29953,2073 29966,2071 29980,2067 29994,2064 30007,2061 30009,2060 30021,2057 30036,2054 30049,2051 30059,2047 30063,2045 30076,2037 30080,2034 30090,2027 30101,2020 30104,2019 30117,2014 30131,2010 30139,2007 30146,2004 30158,1996 30163,1993 30173,1988 30186,1983 30197,1981 30200,1981 30214,1979 30227,1975 30238,1968 30241,1965 30256,1955 30257,1954 30268,1951 30283,1949 30296,1947 30310,1941 30324,1931 30328,1928 30337,1921 30347,1914 30351,1912 30365,1908 30378,1907 30393,1908 30405,1907 30420,1903 30423,1901 30434,1893 30440,1887 30447,1881 30457,1874 30461,1873 30475,1873 30488,1874 30502,1870 30515,1864 30521,1861 30530,1857 30544,1851 30551,1848 30557,1845 30571,1839 30581,1835 30585,1833 30598,1830 30612,1829 30625,1828 30639,1822 30641,1821 30654,1814 30667,1809 30668,1808 30681,1805 30695,1797 30699,1795 30708,1790 30722,1784 30732,1782 30735,1781 30749,1777 30764,1772 30772,1768 30776,1766 30791,1761 30805,1755 30818,1749 30832,1744 30838,1742 30845,1740 30859,1736 30874,1731 30882,1729 30886,1727 30901,1721 30913,1716"/>
 <text class="SVGTextShape"><tspan class="TextParagraph" font-family="Liberation Sans, sans-serif" font-size="353px" font-weight="400"><tspan class="TextPosition" x="2277" y="12916"><tspan fill="rgb(0,0,0)" stroke="none">0</tspan></tspan></tspan></text>
 <text class="SVGTextShape"><tspan class="TextParagraph" font-family="Liberation Sans, sans-serif" font-size="353px" font-weight="400"><tspan class="TextPosition" x="3466" y="12916"><tspan fill="rgb(0,0,0)" stroke="none">0,05</tspan></tspan></tspan></text>
 <text class="SVGTextShape"><tspan class="TextParagraph" font-family="Liberation Sans, sans-serif" font-size="353px" font-weight="400"><tspan class="TextPosition" x="4986" y="12916"><tspan fill="rgb(0,0,0)" stroke="none">0,1</tspan></tspan></tspan></text>
 <text class="SVGTextShape"><tspan class="TextParagraph" font-family="Liberation Sans, sans-serif" font-size="353px" font-weight="400"><tspan class="TextPosition" x="6320" y="12916"><tspan fill="rgb(0,0,0)" stroke="none">0,15</tspan></tspan></tspan></text>
 <text class="SVGTextShape"><tspan class="TextParagraph" font-family="Liberation Sans, sans-serif" font-size="353px" font-weight="400"><tspan class="TextPosition" x="7841" y="12916"><tspan fill="rgb(0,0,0)" stroke="none">0,2</tspan></tspan></tspan></text>
 <text class="SVGTextShape"><tspan class="TextParagraph" font-family="Liberation Sans, sans-serif" font-size="353px" font-weight="400"><tspan class="TextPosition" x="9175" y="12916"><tspan fill="rgb(0,0,0)" stroke="none">0,25</tspan></tspan></tspan></text>
 <text class="SVGTextShape"><tspan class="TextParagraph" font-family="Liberation Sans, sans-serif" font-size="353px" font-weight="400"><tspan class="TextPosition" x="10695" y="12916"><tspan fill="rgb(0,0,0)" stroke="none">0,3</tspan></tspan></tspan></text>
 <text class="SVGTextShape"><tspan class="TextParagraph" font-family="Liberation Sans, sans-serif" font-size="353px" font-weight="400"><tspan class="TextPosition" x="12029" y="12916"><tspan fill="rgb(0,0,0)" stroke="none">0,35</tspan></tspan></tspan></text>
 <text class="SVGTextShape"><tspan class="TextParagraph" font-family="Liberation Sans, sans-serif" font-size="353px" font-weight="400"><tspan class="TextPosition" x="13550" y="12916"><tspan fill="rgb(0,0,0)" stroke="none">0,4</tspan></tspan></tspan></text>
 <text class="SVGTextShape"><tspan class="TextParagraph" font-family="Liberation Sans, sans-serif" font-size="353px" font-weight="400"><tspan class="TextPosition" x="14884" y="12916"><tspan fill="rgb(0,0,0)" stroke="none">0,45</tspan></tspan></tspan></text>
 <text class="SVGTextShape"><tspan class="TextParagraph" font-family="Liberation Sans, sans-serif" font-size="353px" font-weight="400"><tspan class="TextPosition" x="16404" y="12916"><tspan fill="rgb(0,0,0)" stroke="none">0,5</tspan></tspan></tspan></text>
 <text class="SVGTextShape"><tspan class="TextParagraph" font-family="Liberation Sans, sans-serif" font-size="353px" font-weight="400"><tspan class="TextPosition" x="17738" y="12916"><tspan fill="rgb(0,0,0)" stroke="none">0,55</tspan></tspan></tspan></text>
 <text class="SVGTextShape"><tspan class="TextParagraph" font-family="Liberation Sans, sans-serif" font-size="353px" font-weight="400"><tspan class="TextPosition" x="19259" y="12916"><tspan fill="rgb(0,0,0)" stroke="none">0,6</tspan></tspan></tspan></text>
 <text class="SVGTextShape"><tspan class="TextParagraph" font-family="Liberation Sans, sans-serif" font-size="353px" font-weight="400"><tspan class="TextPosition" x="20593" y="12916"><tspan fill="rgb(0,0,0)" stroke="none">0,65</tspan></tspan></tspan></text>
 <text class="SVGTextShape"><tspan class="TextParagraph" font-family="Liberation Sans, sans-serif" font-size="353px" font-weight="400"><tspan class="TextPosition" x="22113" y="12916"><tspan fill="rgb(0,0,0)" stroke="none">0,7</tspan></tspan></tspan></text>
 <text class="SVGTextShape"><tspan class="TextParagraph" font-family="Liberation Sans, sans-serif" font-size="353px" font-weight="400"><tspan class="TextPosition" x="23447" y="12916"><tspan fill="rgb(0,0,0)" stroke="none">0,75</tspan></tspan></tspan></text>
 <text class="SVGTextShape"><tspan class="TextParagraph" font-family="Liberation Sans, sans-serif" font-size="353px" font-weight="400"><tspan class="TextPosition" x="24968" y="12916"><tspan fill="rgb(0,0,0)" stroke="none">0,8</tspan></tspan></tspan></text>
 <text class="SVGTextShape"><tspan class="TextParagraph" font-family="Liberation Sans, sans-serif" font-size="353px" font-weight="400"><tspan class="TextPosition" x="26302" y="12916"><tspan fill="rgb(0,0,0)" stroke="none">0,85</tspan></tspan></tspan></text>
 <text class="SVGTextShape"><tspan class="TextParagraph" font-family="Liberation Sans, sans-serif" font-size="353px" font-weight="400"><tspan class="TextPosition" x="27822" y="12916"><tspan fill="rgb(0,0,0)" stroke="none">0,9</tspan></tspan></tspan></text>
 <text class="SVGTextShape"><tspan class="TextParagraph" font-family="Liberation Sans, sans-serif" font-size="353px" font-weight="400"><tspan class="TextPosition" x="29156" y="12916"><tspan fill="rgb(0,0,0)" stroke="none">0,95</tspan></tspan></tspan></text>
 <text class="SVGTextShape"><tspan class="TextParagraph" font-family="Liberation Sans, sans-serif" font-size="353px" font-weight="400"><tspan class="TextPosition" x="30821" y="12916"><tspan fill="rgb(0,0,0)" stroke="none">1</tspan></tspan></tspan></text>
 <text class="SVGTextShape"><tspan class="TextParagraph" font-family="Liberation Sans, sans-serif" font-size="353px" font-weight="400"><tspan class="TextPosition" x="1935" y="12469"><tspan fill="rgb(0,0,0)" stroke="none">0</tspan></tspan></tspan></text>
 <text class="SVGTextShape"><tspan class="TextParagraph" font-family="Liberation Sans, sans-serif" font-size="353px" font-weight="400"><tspan class="TextPosition" x="1644" y="11405"><tspan fill="rgb(0,0,0)" stroke="none">0,1</tspan></tspan></tspan></text>
 <text class="SVGTextShape"><tspan class="TextParagraph" font-family="Liberation Sans, sans-serif" font-size="353px" font-weight="400"><tspan class="TextPosition" x="1644" y="10342"><tspan fill="rgb(0,0,0)" stroke="none">0,2</tspan></tspan></tspan></text>
 <text class="SVGTextShape"><tspan class="TextParagraph" font-family="Liberation Sans, sans-serif" font-size="353px" font-weight="400"><tspan class="TextPosition" x="1644" y="9279"><tspan fill="rgb(0,0,0)" stroke="none">0,3</tspan></tspan></tspan></text>
 <text class="SVGTextShape"><tspan class="TextParagraph" font-family="Liberation Sans, sans-serif" font-size="353px" font-weight="400"><tspan class="TextPosition" x="1644" y="8215"><tspan fill="rgb(0,0,0)" stroke="none">0,4</tspan></tspan></tspan></text>
 <text class="SVGTextShape"><tspan class="TextParagraph" font-family="Liberation Sans, sans-serif" font-size="353px" font-weight="400"><tspan class="TextPosition" x="1644" y="7152"><tspan fill="rgb(0,0,0)" stroke="none">0,5</tspan></tspan></tspan></text>
 <text class="SVGTextShape"><tspan class="TextParagraph" font-family="Liberation Sans, sans-serif" font-size="353px" font-weight="400"><tspan class="TextPosition" x="1644" y="6089"><tspan fill="rgb(0,0,0)" stroke="none">0,6</tspan></tspan></tspan></text>
 <text class="SVGTextShape"><tspan class="TextParagraph" font-family="Liberation Sans, sans-serif" font-size="353px" font-weight="400"><tspan class="TextPosition" x="1644" y="5025"><tspan fill="rgb(0,0,0)" stroke="none">0,7</tspan></tspan></tspan></text>
 <text class="SVGTextShape"><tspan class="TextParagraph" font-family="Liberation Sans, sans-serif" font-size="353px" font-weight="400"><tspan class="TextPosition" x="1644" y="3962"><tspan fill="rgb(0,0,0)" stroke="none">0,8</tspan></tspan></tspan></text>
 <text class="SVGTextShape"><tspan class="TextParagraph" font-family="Liberation Sans, sans-serif" font-size="353px" font-weight="400"><tspan class="TextPosition" x="1644" y="2899"><tspan fill="rgb(0,0,0)" stroke="none">0,9</tspan></tspan></tspan></text>
 <text class="SVGTextShape"><tspan class="TextParagraph" font-family="Liberation Sans, sans-serif" font-size="353px" font-weight="400"><tspan class="TextPosition" x="1935" y="1836"><tspan fill="rgb(0,0,0)" stroke="none">1</tspan></tspan></tspan></text>
 <text class="SVGTextShape"><tspan class="TextParagraph" font-family="Liberation Sans, sans-serif" font-size="459px" font-weight="400"><tspan class="TextPosition" x="7750" y="972"><tspan fill="rgb(0,0,0)" stroke="none">Klaid dalies persistame praneime priklausomyb nuo klaidos tikimybs kanale</tspan></tspan></tspan></text>
 <path fill="none" stroke="rgb(0,69,134)" stroke-width="80" stroke-linejoin="round" d="M 10965,14760 L 11765,14760"/>
 <path fill="none" stroke="rgb(255,66,14)" stroke-width="80" stroke-linejoin="round" d="M 16120,14760 L 16920,14760"/>
 <text class="SVGTextShape"><tspan class="TextParagraph" font-family="Liberation Sans, sans-serif" font-size="353px" font-weight="400"><tspan class="TextPosition" x="11865" y="14880"><tspan fill="rgb(0,0,0)" stroke="none">neukoduotas praneimas</tspan></tspan></tspan></text>
 <text class="SVGTextShape"><tspan class="TextParagraph" font-family="Liberation Sans, sans-serif" font-size="353px" font-weight="400"><tspan class="TextPosition" x="17020" y="14880"><tspan fill="rgb(0,0,0)" stroke="none">ukoduotas praneimas</tspan></tspan></tspan></text>
 <text class="SVGTextShape"><tspan class="TextParagraph" font-family="Liberation Sans, sans-serif" font-size="318px" font-weight="400"><tspan class="TextPosition" x="14646" y="13684"><tspan fill="rgb(0,0,0)" stroke="none">klaidos tikimyb kanale</tspan></tspan></tspan></text>
 <text class="SVGTextShape" transform="rotate(-90 837 9809)"><tspan class="TextParagraph" font-family="Liberation Sans, sans-serif" font-size="318px" font-weight="400"><tspan class="TextPosition" x="837" y="9809"><tspan fill="rgb(0,0,0)" stroke="none">klaid dalis persistame praneime</tspan></tspan></tspan></text>
</svg>